<svg xmlns="http://www.w3.org/2000/svg" viewBox="0 0 80 80">
  <defs>
    <linearGradient id="globua" x1="0%" y1="0%" y2="100%">
      <stop offset="0%" stop-color="#1D3EDE"/>
      <stop offset="100%" stop-color="#01E4F8"/>
    </linearGradient>
  </defs>
  <g fill="none" fill-rule="evenodd" transform="translate(1 1)">
    <circle cx="39" cy="39" r="39" stroke="url(#globua)"/>
    <circle cx="39" cy="39" r="33" fill="url(#globua)"/>
    <path fill="#FFF" fill-rule="nonzero" d="M25.385 36.836c.745-5.252 4.76-9.502 9.993-10.576 4.336-.89 8.8.545 11.792 3.688l.098-2.075a.622.622 0 0 1 .652-.59.62.62 0 0 1 .594.648l-.174 3.665-.001.03a.613.613 0 0 1-.398.524h-.001v.001h-.002l-.001.001-.003.001h-.002l-.002.001a.626.626 0 0 1-.721-.223c-2.636-3.611-7.18-5.361-11.579-4.458-4.718.968-8.339 4.8-9.01 9.535a.622.622 0 0 1-.704.527.62.62 0 0 1-.531-.7zm18.37-4.129a8.32 8.32 0 0 0-3.495-1.99c.207.327.41.72.605 1.189.653 1.576 1.054 3.701 1.129 5.984a.621.621 0 0 1-.603.639.622.622 0 0 1-.644-.599 21.716 21.716 0 0 0-.058-1.033 27.038 27.038 0 0 1-5.408.006 22.862 22.862 0 0 0-.068 1.783c0 4.085 1.72 7.514 2.642 8.445l.01.01a.616.616 0 0 1 .17.462v.001a.61.61 0 0 1-.005.044v.001a.614.614 0 0 1-.046.166v.001a.616.616 0 0 1-.357.333.624.624 0 0 1-.24.037h-.017c-5.03-.318-8.97-4.49-8.97-9.5 0-5.249 4.3-9.519 9.587-9.519 2.484 0 4.84.94 6.632 2.646a.616.616 0 0 1 .019.876.627.627 0 0 1-.882.018zm-13.952 7.576c1.395.452 2.86.786 4.367.994a16.747 16.747 0 0 1-.204-2.591c0-.644.027-1.294.081-1.936a24.669 24.669 0 0 1-3.896-.902 8.19 8.19 0 0 0-.348 4.435zm4.618 2.276a27.18 27.18 0 0 1-4.199-.852 8.35 8.35 0 0 0 5.816 5.032c-.612-1.038-1.22-2.488-1.617-4.18zm1.292-11.84a8.366 8.366 0 0 0-5.042 3.994c1.137.356 2.311.625 3.516.806.27-1.894.783-3.626 1.526-4.8zm2.273-.313c-.91 0-2.102 1.944-2.571 5.265a25.809 25.809 0 0 0 5.136-.005c-.458-3.187-1.591-5.26-2.565-5.26zm.567 19.523c-5.683.301-10.644-3.494-11.802-9.026a.608.608 0 0 0-.188-.34.62.62 0 0 0-.657-.123.62.62 0 0 0-.388.503l-.512 3.625a.623.623 0 1 0 1.235.172l.139-.98a12.569 12.569 0 0 0 3.856 4.834 12.766 12.766 0 0 0 8.384 2.571.62.62 0 0 0 .589-.65.622.622 0 0 0-.656-.586zm13.268-3.346a223.48 223.48 0 0 1-.78 2.276c-.26.743-.526 1.482-.789 2.196-.197.54-.665.9-1.206.938a.63.63 0 0 1-.095.007H42.45c-.772 0-1.4-.664-1.4-1.48v-.033c-.05-1.125-.474-1.593-.847-2.006a5.265 5.265 0 0 1-.456-.553c-.881-1.282-1.285-2.364-1.753-3.618a35.986 35.986 0 0 0-.693-1.755c-.146-.339-.379-1.128-.399-1.547-.035-.738.177-1.432.57-1.855a1.51 1.51 0 0 1 1.077-.493c.479-.016.992.121 1.34.359.488.332.919.865 1.318 1.627.163.312.264.65.354.947.052.174.102.338.154.462.05.118.098.222.146.308.064.116.128.172.186.166.151-.015.441-.245.583-.69.4-1.261.843-2.998.886-4.09.055-1.398.107-2.72.871-3.519.808-.845 1.764-1.063 2.84-.647l.035.014a.62.62 0 0 1 .37.557c.01.166.025.35.043.547.306-.053.603-.032.89.065.624.21 1.137.766 1.524 1.65.302.69.474 1.123.558 1.478a.623.623 0 0 1 .41-.097c.256.029.837.28 1.015.605.473.86.745 1.583.857 2.276.265 1.718-.223 3.284-1.107 5.905zm-.125-5.713c-.084-.52-.296-1.087-.665-1.773a1.092 1.092 0 0 0-.148-.073.624.624 0 0 1-.204-.073l-.03.222a9.02 9.02 0 0 1-.082.47c-.082.413-.157.818-.229 1.209-.175.949-.34 1.845-.582 2.648a.624.624 0 0 1-1.195-.356c.223-.738.382-1.6.55-2.515.073-.396.149-.805.233-1.227.03-.155.053-.287.07-.402.1-.71.11-.769-.47-2.09-.235-.536-.512-.88-.781-.971a.562.562 0 0 0-.359.002c.119 1.143.21 2.36.005 3.28-.35 1.562-.638 2.824-.897 3.673a.624.624 0 0 1-1.194-.359c.246-.806.541-2.1.873-3.582.193-.86.041-2.263-.08-3.39-.036-.325-.07-.638-.095-.928-.423-.07-.766.072-1.125.448-.441.461-.486 1.607-.53 2.715-.06 1.528-.737 3.764-.943 4.413-.272.857-.934 1.48-1.648 1.55-.577.057-1.089-.235-1.403-.801a4.356 4.356 0 0 1-.205-.43 6.1 6.1 0 0 1-.197-.582c-.077-.257-.157-.523-.266-.732-.302-.577-.602-.962-.917-1.176-.104-.072-.33-.143-.555-.143h-.036a.264.264 0 0 0-.203.094c-.163.177-.26.562-.241.958.01.205.18.842.3 1.12.303.705.521 1.29.714 1.807.459 1.23.82 2.198 1.615 3.354.094.136.214.269.352.422.44.487 1.104 1.22 1.169 2.806a.58.58 0 0 1 0 .049v.013c0 .148.09.242.152.242h6.433a.623.623 0 0 1 .069-.004c.04 0 .098-.04.13-.127a157.445 157.445 0 0 0 1.557-4.441c.823-2.44 1.278-3.89 1.058-5.32z"/>
  </g>
</svg>
