<?xml version="1.0" encoding="UTF-8"?>
<svg width="35px" height="35px" viewBox="0 0 35 35" version="1.1" xmlns="http://www.w3.org/2000/svg" xmlns:xlink="http://www.w3.org/1999/xlink">
    <!-- Generator: Sketch 49.3 (51167) - http://www.bohemiancoding.com/sketch -->
    <title>company</title>
    <desc>Created with Sketch.</desc>
    <defs>
        <linearGradient x1="0%" y1="0%" x2="100%" y2="100%" id="linearGradient-1">
            <stop stop-color="#1D3EDE" offset="0%"></stop>
            <stop stop-color="#01E4F8" offset="100%"></stop>
        </linearGradient>
    </defs>
    <g id="Design" stroke="none" stroke-width="1" fill="none" fill-rule="evenodd">
        <g id="Основной-концепт" transform="translate(-941.000000, -1076.000000)" fill="url(#linearGradient-1)" fill-rule="nonzero">
            <g id="Бизнесу" transform="translate(404.000000, 994.000000)">
                <g id="Group-8" transform="translate(380.000000, 56.000000)">
                    <g id="Group-5-Copy">
                        <g id="registration" transform="translate(157.000000, 26.000000)">
                            <g id="piggy-bank">
                                <g id="company">
                                    <rect id="Rectangle-path" x="11" y="5" width="1" height="1"></rect>
                                    <rect id="Rectangle-path" x="15" y="2" width="1" height="1"></rect>
                                    <rect id="Rectangle-path" x="19" y="2" width="1" height="1"></rect>
                                    <rect id="Rectangle-path" x="23" y="5" width="1" height="1"></rect>
                                    <rect id="Rectangle-path" x="11" y="8" width="1" height="1"></rect>
                                    <rect id="Rectangle-path" x="23" y="8" width="1" height="1"></rect>
                                    <rect id="Rectangle-path" x="15" y="4" width="1" height="1"></rect>
                                    <rect id="Rectangle-path" x="19" y="4" width="1" height="1"></rect>
                                    <rect id="Rectangle-path" x="8" y="18" width="1" height="1"></rect>
                                    <rect id="Rectangle-path" x="9" y="18" width="1" height="1"></rect>
                                    <rect id="Rectangle-path" x="8" y="20" width="1" height="1"></rect>
                                    <rect id="Rectangle-path" x="9" y="20" width="1" height="1"></rect>
                                    <rect id="Rectangle-path" x="25" y="26" width="1" height="1"></rect>
                                    <rect id="Rectangle-path" x="26" y="26" width="1" height="1"></rect>
                                    <rect id="Rectangle-path" x="25" y="28" width="1" height="1"></rect>
                                    <rect id="Rectangle-path" x="26" y="28" width="1" height="1"></rect>
                                    <rect id="Rectangle-path" x="20" y="28" width="1" height="1"></rect>
                                    <rect id="Rectangle-path" x="20" y="32" width="1" height="1"></rect>
                                    <rect id="Rectangle-path" x="32" y="28" width="1" height="1"></rect>
                                    <rect id="Rectangle-path" x="32" y="32" width="1" height="1"></rect>
                                    <rect id="Rectangle-path" x="14" y="21" width="1" height="1"></rect>
                                    <rect id="Rectangle-path" x="14" y="23" width="1" height="1"></rect>
                                    <rect id="Rectangle-path" x="2" y="21" width="1" height="1"></rect>
                                    <rect id="Rectangle-path" x="2" y="23" width="1" height="1"></rect>
                                    <rect id="Rectangle-path" x="8" y="27" width="1" height="1"></rect>
                                    <rect id="Rectangle-path" x="8" y="31" width="1" height="1"></rect>
                                    <rect id="Rectangle-path" x="10" y="31" width="1" height="1"></rect>
                                    <rect id="Rectangle-path" x="12" y="31" width="1" height="1"></rect>
                                    <rect id="Rectangle-path" x="14" y="31" width="1" height="1"></rect>
                                    <rect id="Rectangle-path" x="20" y="21" width="1" height="1"></rect>
                                    <rect id="Rectangle-path" x="22" y="21" width="1" height="1"></rect>
                                    <rect id="Rectangle-path" x="24" y="21" width="1" height="1"></rect>
                                    <rect id="Rectangle-path" x="26" y="21" width="1" height="1"></rect>
                                    <rect id="Rectangle-path" x="15" y="13" width="1" height="1"></rect>
                                    <rect id="Rectangle-path" x="15" y="15" width="1" height="1"></rect>
                                    <path d="M26.25,8.77041667 L26.25,6.91483333 C26.4401667,6.965 26.6344167,7 26.8333333,7 L32.6666667,7 C33.9535,7 35,5.9535 35,4.66666667 C35,3.29991667 33.7965833,2.20208333 32.4280833,2.34616667 C31.9748333,1.29733333 30.9289167,0.583333333 29.75,0.583333333 C28.5710833,0.583333333 27.5251667,1.29733333 27.0719167,2.34616667 C26.4273333,2.27733333 25.7845,2.49025 25.29975,2.91666667 L21.5833333,2.91666667 L21.5833333,0.583333333 C21.5833333,0.26075 21.3225833,0 21,0 L14,0 C13.6774167,0 13.4166667,0.26075 13.4166667,0.583333333 L13.4166667,2.91666667 L9.33333333,2.91666667 C9.01075,2.91666667 8.75,3.17741667 8.75,3.5 L8.75,3.58691667 C8.48341667,3.51633333 8.20691667,3.48366667 7.92808333,3.51341667 C7.47483333,2.464 6.42891667,1.75 5.25,1.75 C4.07108333,1.75 3.02516667,2.464 2.57191667,3.51283333 C1.20691667,3.36816667 0,4.46658333 0,5.83333333 C0,7.12016667 1.0465,8.16666667 2.33333333,8.16666667 L8.16666667,8.16666667 C8.36558333,8.16666667 8.55983333,8.13166667 8.75,8.0815 L8.75,8.76633333 C5.13158333,10.85875 2.40391667,14.1440833 1.0115,18.0833333 L0.583333333,18.0833333 C0.26075,18.0833333 0,18.3440833 0,18.6666667 L0,25.6666667 C0,25.8119167 0.0583333333,25.94025 0.145833333,26.0423333 C0.5355,29.2413333 1.78383333,32.2571667 3.78466667,34.7789167 C3.8955,34.9183333 4.0635,35 4.24141667,35 L18.0833333,35 L22.75,35 L25.0833333,35 L27.4166667,35 L29.75,35 L34.4166667,35 C34.73925,35 35,34.73925 35,34.4166667 L35,27.4166667 C35,27.2084167 34.8850833,27.0345833 34.7211667,26.9313333 C34.9025833,25.9093333 35,24.89725 35,23.9166667 C35,17.6645 31.6534167,11.8976667 26.25,8.77041667 Z M26.25,3.65983333 C26.5416667,3.48716667 26.9004167,3.44575 27.2515833,3.58225 C27.412,3.64525 27.5916667,3.63416667 27.7439167,3.55016667 C27.895,3.46733333 28.0011667,3.32208333 28.0355833,3.15291667 C28.1983333,2.34033333 28.9193333,1.75 29.75,1.75 C30.5806667,1.75 31.3016667,2.34033333 31.4644167,3.15291667 C31.4988333,3.32208333 31.605,3.46733333 31.7560833,3.55016667 C31.9083333,3.63416667 32.0874167,3.64525 32.2484167,3.58225 C33.0388333,3.27483333 33.8333333,3.88558333 33.8333333,4.66666667 C33.8333333,5.31008333 33.3100833,5.83333333 32.6666667,5.83333333 L26.8333333,5.83333333 C26.6285833,5.83333333 26.4279167,5.77675 26.25,5.67175 L26.25,3.65983333 Z M21.5833333,4.08333333 L25.0833333,4.08333333 L25.0833333,5.96283333 L25.0833333,9.10116667 L25.0833333,9.91666667 L21.5833333,9.91666667 L21.5833333,4.08333333 Z M14.5833333,3.5 L14.5833333,1.16666667 L20.4166667,1.16666667 L20.4166667,3.5 L20.4166667,9.91666667 L19.25,9.91666667 L19.25,7.58333333 C19.25,7.26075 18.98925,7 18.6666667,7 L16.3333333,7 C16.01075,7 15.75,7.26075 15.75,7.58333333 L15.75,9.91666667 L14.5833333,9.91666667 L14.5833333,3.5 Z M18.0833333,8.16666667 L18.0833333,9.91666667 L16.9166667,9.91666667 L16.9166667,8.16666667 L18.0833333,8.16666667 Z M9.91666667,9.10116667 L9.91666667,7.1295 L9.91666667,4.53716667 L9.91666667,4.08333333 L13.4166667,4.08333333 L13.4166667,9.91666667 L9.91666667,9.91666667 L9.91666667,9.10116667 Z M8.16666667,7 L2.33333333,7 C1.68991667,7 1.16666667,6.47675 1.16666667,5.83333333 C1.16666667,5.18991667 1.68991667,4.66666667 2.33333333,4.66666667 C2.471,4.66666667 2.61216667,4.69466667 2.75158333,4.74891667 C2.912,4.81191667 3.09225,4.80083333 3.24391667,4.71683333 C3.395,4.634 3.50116667,4.48875 3.53558333,4.31958333 C3.69833333,3.507 4.41933333,2.91666667 5.25,2.91666667 C6.08066667,2.91666667 6.80166667,3.507 6.96441667,4.31958333 C6.99883333,4.48875 7.105,4.634 7.25608333,4.71683333 C7.40775,4.80083333 7.58741667,4.81191667 7.74841667,4.74891667 C8.09491667,4.61358333 8.4525,4.65208333 8.75,4.82825 L8.75,6.83783333 C8.57208333,6.94341667 8.37141667,7 8.16666667,7 Z M1.16666667,19.25 L1.42391667,19.25 L4.66666667,19.25 L4.66666667,25.0833333 L1.16666667,25.0833333 L1.16666667,19.25 Z M22.1666667,33.8333333 L18.6666667,33.8333333 L18.6666667,28 L22.1666667,28 L22.1666667,33.8333333 Z M26.8333333,33.8333333 L25.6666667,33.8333333 L25.6666667,32.0833333 L26.8333333,32.0833333 L26.8333333,33.8333333 Z M29.1666667,27.4166667 L29.1666667,33.8333333 L28,33.8333333 L28,31.5 C28,31.1774167 27.73925,30.9166667 27.4166667,30.9166667 L25.0833333,30.9166667 C24.76075,30.9166667 24.5,31.1774167 24.5,31.5 L24.5,33.8333333 L23.3333333,33.8333333 L23.3333333,27.4166667 L23.3333333,25.0833333 L29.1666667,25.0833333 L29.1666667,27.4166667 Z M33.8333333,33.8333333 L30.3333333,33.8333333 L30.3333333,28 L33.8333333,28 L33.8333333,33.8333333 Z M33.5585833,26.8333333 L30.3333333,26.8333333 L30.3333333,24.5 C30.3333333,24.1774167 30.0725833,23.9166667 29.75,23.9166667 L22.75,23.9166667 C22.4274167,23.9166667 22.1666667,24.1774167 22.1666667,24.5 L22.1666667,26.8333333 L18.0833333,26.8333333 C17.76075,26.8333333 17.5,27.0940833 17.5,27.4166667 L17.5,33.8333333 L4.52666667,33.8333333 C2.8315,31.6184167 1.73833333,29.0138333 1.34225,26.25 L5.25,26.25 L7.58333333,26.25 L9.91666667,26.25 L12.25,26.25 L16.9166667,26.25 C17.23925,26.25 17.5,25.98925 17.5,25.6666667 L17.5,18.6666667 C17.5,18.3440833 17.23925,18.0833333 16.9166667,18.0833333 L12.8333333,18.0833333 L12.8333333,15.75 C12.8333333,15.4274167 12.5725833,15.1666667 12.25,15.1666667 L5.25,15.1666667 C4.92741667,15.1666667 4.66666667,15.4274167 4.66666667,15.75 L4.66666667,18.0833333 L2.24875,18.0833333 C3.507,14.7898333 5.77733333,12.0114167 8.75,10.1243333 L8.75,10.5 C8.75,10.8225833 9.01075,11.0833333 9.33333333,11.0833333 L14,11.0833333 L16.3333333,11.0833333 L18.6666667,11.0833333 L21,11.0833333 L25.6666667,11.0833333 C25.98925,11.0833333 26.25,10.8225833 26.25,10.5 L26.25,10.1243333 C30.95225,13.1121667 33.8333333,18.3085 33.8333333,23.9166667 C33.8333333,24.8634167 33.7411667,25.8428333 33.5585833,26.8333333 Z M9.91666667,22.1666667 L7.58333333,22.1666667 C7.26075,22.1666667 7,22.4274167 7,22.75 L7,25.0833333 L5.83333333,25.0833333 L5.83333333,18.6666667 L5.83333333,16.3333333 L11.6666667,16.3333333 L11.6666667,18.6666667 L11.6666667,25.0833333 L10.5,25.0833333 L10.5,22.75 C10.5,22.4274167 10.23925,22.1666667 9.91666667,22.1666667 Z M9.33333333,23.3333333 L9.33333333,25.0833333 L8.16666667,25.0833333 L8.16666667,23.3333333 L9.33333333,23.3333333 Z M12.8333333,25.0833333 L12.8333333,19.25 L16.3333333,19.25 L16.3333333,25.0833333 L12.8333333,25.0833333 Z" id="Shape"></path>
                                </g>
                            </g>
                        </g>
                    </g>
                </g>
            </g>
        </g>
    </g>
</svg>