<?xml version="1.0" encoding="UTF-8"?>
<svg width="27px" height="27px" viewBox="0 0 27 27" version="1.1" xmlns="http://www.w3.org/2000/svg" xmlns:xlink="http://www.w3.org/1999/xlink">
    <!-- Generator: Sketch 50.2 (55047) - http://www.bohemiancoding.com/sketch -->
    <title>gmail</title>
    <desc>Created with Sketch.</desc>
    <defs>
        <linearGradient x1="0%" y1="0%" x2="100%" y2="100%" id="linearGradient-1">
            <stop stop-color="#1D3EDE" offset="0%"></stop>
            <stop stop-color="#01E4F8" offset="100%"></stop>
        </linearGradient>
    </defs>
    <g id="Design" stroke="none" stroke-width="1" fill="none" fill-rule="evenodd">
        <g id="Контакты" transform="translate(-469.000000, -1074.000000)" fill="url(#linearGradient-1)" fill-rule="nonzero">
            <g id="Group-5" transform="translate(469.000000, 1030.000000)">
                <g id="Group-4" transform="translate(0.000000, 40.000000)">
                    <g id="gmail" transform="translate(0.000000, 4.000000)">
                        <path d="M13.5,0 C6.044125,0 0,6.044125 0,13.5 C0,20.955875 6.044125,27 13.5,27 C20.955875,27 27,20.955875 27,13.5 C27,6.044125 20.955875,0 13.5,0 Z M19.582125,7.5 L13.495,12.31225 L7.209875,7.5 L19.582125,7.5 Z M20.208375,19.5 L6.583375,19.5 L6.583375,9.532375 L12.863875,14.296125 C13.03225,14.424875 13.281375,14.48925 13.48225,14.48925 C13.687875,14.48925 13.866375,14.42175 14.036625,14.28725 L20.208375,9.37775 L20.208375,19.5 Z" id="Shape"></path>
                    </g>
                </g>
            </g>
        </g>
    </g>
</svg>