<?xml version="1.0" encoding="UTF-8"?>
<svg width="48px" height="48px" viewBox="0 0 48 48" version="1.1" xmlns="http://www.w3.org/2000/svg" xmlns:xlink="http://www.w3.org/1999/xlink">
    <!-- Generator: Sketch 50.2 (55047) - http://www.bohemiancoding.com/sketch -->
    <title>Facebook</title>
    <desc>Created with Sketch.</desc>
    <defs>
        <linearGradient x1="0%" y1="0%" x2="100%" y2="100%" id="linearGradient-1">
            <stop stop-color="#1D3EDE" offset="0%"></stop>
            <stop stop-color="#01E4F8" offset="100%"></stop>
        </linearGradient>
    </defs>
    <g id="Design" stroke="none" stroke-width="1" fill="none" fill-rule="evenodd">
        <g id="Контакты" transform="translate(-975.000000, -1787.000000)">
            <g id="Group-23" transform="translate(0.000000, 1179.000000)">
                <g id="2nd.Row" transform="translate(406.000000, 550.000000)">
                    <g id="Col.3" transform="translate(569.000000, 0.000000)">
                        <g id="Social-Icons" transform="translate(0.000000, 58.000000)">
                            <g id="Facebook">
                                <rect id="BG" fill="#FFFFFF" x="0" y="0" width="48" height="48" rx="4"></rect>
                                <g id="logo-fb-simple" transform="translate(19.000000, 16.000000)" fill="url(#linearGradient-1)" fill-rule="nonzero">
                                    <path d="M3.02293,16 L3,9 L0,9 L0,6 L3,6 L3,4 C3,1.3008 4.67151,0 7.07938,0 C8.23277,0 9.22406,0.08587 9.51294,0.12425 L9.51294,2.94507 L7.84296,2.94583 C6.53343,2.94583 6.27987,3.5681 6.27987,4.48124 L6.27987,6 L10,6 L9,9 L6.27986,9 L6.27986,16 L3.02293,16 Z" id="Shape"></path>
                                </g>
                            </g>
                        </g>
                    </g>
                </g>
            </g>
        </g>
    </g>
</svg>