<?xml version="1.0" encoding="UTF-8"?>
<svg width="32px" height="34px" viewBox="0 0 32 34" version="1.1" xmlns="http://www.w3.org/2000/svg" xmlns:xlink="http://www.w3.org/1999/xlink">
    <!-- Generator: Sketch 49.3 (51167) - http://www.bohemiancoding.com/sketch -->
    <title>lawyer</title>
    <desc>Created with Sketch.</desc>
    <defs>
        <linearGradient x1="0%" y1="0%" x2="100%" y2="100%" id="linearGradient-1">
            <stop stop-color="#1D3EDE" offset="0%"></stop>
            <stop stop-color="#01E4F8" offset="100%"></stop>
        </linearGradient>
    </defs>
    <g id="Design" stroke="none" stroke-width="1" fill="none" fill-rule="evenodd">
        <g id="Основной-концепт" transform="translate(-1323.000000, -1483.000000)" fill="url(#linearGradient-1)" fill-rule="nonzero">
            <g id="Частным-лицам" transform="translate(404.000000, 1400.000000)">
                <g id="Group-8-Copy-3" transform="translate(760.000000, 56.000000)">
                    <g id="Group-5-Copy">
                        <g id="registration" transform="translate(159.000000, 27.000000)">
                            <g id="piggy-bank">
                                <g id="company">
                                    <g id="lawyer">
                                        <path d="M28.4288445,24.4990194 L26.2567796,23.9619222 C26.2413364,23.7462462 26.0976705,23.5507646 25.8775313,23.4782117 L22.4758051,22.3567257 C22.3485476,22.156838 22.1796381,21.9794946 21.9701903,21.841365 L21.1249745,21.284 C23.0444548,19.4601166 24.2784223,16.637676 24.2784223,13.475162 C24.2784223,13.014216 24.2242227,12.5297711 24.1357216,12.0418747 C24.1481206,12.0067732 24.1571787,11.9699093 24.1623016,11.9315767 C24.1659397,11.9041123 24.5312297,9.14548596 24.7350348,5.83088985 C24.8167053,4.5034946 24.3963248,3.20584017 23.5514803,2.17695464 C22.7040371,1.14498488 21.504891,0.475926566 20.1748492,0.293075594 C18.7597958,0.0986220302 17.3552111,0 16,0 C14.9217262,0 12.2707007,0.175360691 10.4384594,1.76241901 L10.2310162,1.76241901 C9.25408817,1.76241901 8.31227842,2.16784881 7.64696056,2.87465227 C6.98372158,3.57932613 6.6432297,4.53374946 6.7127239,5.49323974 C6.86789791,7.63575378 7.15819954,10.6777624 7.65958237,13.0026134 C7.6727239,13.0634168 7.69625986,13.1193002 7.72677494,13.1698229 C7.72425058,13.2714557 7.72157773,13.3730151 7.72157773,13.475162 C7.72157773,16.637676 8.95554524,19.4601166 10.8750255,21.284 L10.0297355,21.841365 C9.8202877,21.9794946 9.65137819,22.156838 9.52412065,22.3567257 L6.12239443,23.4782117 C5.90225522,23.5507646 5.75858933,23.7463197 5.74314617,23.9619957 L3.57108121,24.4990929 C1.46851044,25.018933 0,26.8791663 0,29.0228553 L0,32.2742981 C0,33.2258575 0.782700696,34 1.74477958,34 L30.2552204,34 C31.2172993,34 32,33.2258575 32,32.2742981 L32,29.0228553 C32,26.8792397 30.5314896,25.018933 28.4288445,24.4990194 Z M22.070348,27.292527 L23.0777169,28.7871317 L20.9663852,32.8984881 L19.5280928,32.8984881 C19.5178469,32.0985702 19.5667007,30.3601641 20.1022367,28.9421512 C20.110181,28.9212225 20.1162691,28.9 20.1214664,28.8787775 C20.1260696,28.8697451 20.1306729,28.8607127 20.1353503,28.8515335 L20.9998701,27.1425011 C21.5204826,26.112514 22.1454107,24.8756631 22.5634896,24.047987 C22.6370673,23.9023672 22.6878515,23.7507257 22.7170302,23.5972484 L25.000464,24.3500216 L24.4759165,25.9390626 L22.3987378,26.4526609 C22.2230719,26.4960605 22.079703,26.6212657 22.0143666,26.7883283 C21.9489559,26.9554644 21.9698933,27.1435292 22.070348,27.292527 Z M17.6879814,32.8984881 L17.2036009,29.1256631 C17.5280557,28.9241598 17.7447796,28.5680778 17.7447796,28.161987 L17.7447796,27.9541685 C18.1146729,28.2132441 18.5176056,28.5307732 18.9342738,28.9157883 C18.4524919,30.4153866 18.4026729,32.0774946 18.4133643,32.8984881 L17.6879814,32.8984881 Z M13.6033411,32.8984881 C13.6140325,32.0752916 13.5639165,30.4066479 13.0785708,28.903892 C13.49071,28.5242376 13.8891137,28.210527 14.2552204,27.954095 L14.2552204,28.161987 C14.2552204,28.5680778 14.4720186,28.9241598 14.7963991,29.1256631 L14.3120186,32.8984881 L13.6033411,32.8984881 Z M15.9999258,26.9861598 C16.1375035,27.0403542 16.3548956,27.1335421 16.6310905,27.2762981 L16.6310905,28.161987 C16.6310905,28.1822549 16.6144594,28.1987041 16.5939675,28.1987041 L15.4060325,28.1987041 C15.3855406,28.1987041 15.3689095,28.1822549 15.3689095,28.161987 L15.3689095,27.2762246 C15.6452529,27.1333952 15.8627193,27.0402073 15.9999258,26.9861598 Z M15.8966497,29.300216 L16.1033503,29.300216 L16.5653086,32.8984881 L15.4346914,32.8984881 L15.8966497,29.300216 Z M21.5671833,23.5556847 C20.5317494,25.6053045 19.793522,27.0660562 19.3992761,27.8452657 C18.4441763,27.0146523 17.5737912,26.5050194 16.9767053,26.2123844 L20.822645,22.4084968 L21.3523898,22.7578229 C21.6166311,22.9320086 21.708993,23.2750194 21.5671833,23.5556847 Z M23.1276102,13.511879 L21.3085847,13.511879 L21.3085847,12.887689 C21.3085847,12.5835248 21.0592668,12.336933 20.7517401,12.336933 L17.187935,12.336933 C16.8804084,12.336933 16.6310905,12.5835248 16.6310905,12.887689 L16.6310905,13.0416803 C16.4352297,12.9662635 16.2225151,12.924406 16,12.924406 C15.7774849,12.924406 15.5647703,12.9662635 15.3689095,13.0416803 L15.3689095,12.887689 C15.3689095,12.5835248 15.1195916,12.336933 14.812065,12.336933 L11.2482599,12.336933 C10.9407332,12.336933 10.6914153,12.5835248 10.6914153,12.887689 L10.6914153,13.511879 L8.87238979,13.511879 C8.85999072,13.511879 8.84788863,13.5129071 8.83563805,13.5137149 C8.83556381,13.5008639 8.83526682,13.4880864 8.83526682,13.475162 C8.83526682,11.5743197 9.31363341,9.77870842 10.2223295,8.25458315 C13.7274803,9.33347732 17.6593225,9.33024622 21.8139768,9.32650108 L22.1587007,9.32635421 C22.5864316,10.3960691 23.1647332,12.0973909 23.1647332,13.475162 C23.1647332,13.488013 23.1643619,13.5008639 23.1643619,13.5137149 C23.1521114,13.5129071 23.1400093,13.511879 23.1276102,13.511879 Z M7.82359165,5.41444492 C7.77540603,4.74927862 8.00215313,4.11385313 8.46210673,3.62514903 C8.92413921,3.13431533 9.55233411,2.86393089 10.2310162,2.86393089 L10.6542923,2.86393089 C10.79729,2.86393089 10.9347935,2.8095162 11.0382923,2.71199568 C12.58142,1.2584406 15.0222552,1.10151188 16,1.10151188 C17.3040557,1.10151188 18.6571879,1.19660907 20.0216056,1.38415983 C21.0713689,1.52845788 22.0179304,2.05666955 22.6869606,2.87142117 C23.355471,3.68558531 23.6880186,4.71285529 23.6233503,5.76406479 C23.5427935,7.07383585 23.4368445,8.29475162 23.3383944,9.29073866 C23.2409095,9.034527 23.1428306,8.79006479 23.0477958,8.56396112 C22.9614478,8.35856587 22.7585336,8.22462203 22.5336427,8.22462203 L21.8130116,8.2249892 C17.5867842,8.22888121 13.5942088,8.23196544 10.1589234,7.07589201 C9.91792111,6.99482073 9.6521949,7.08558531 9.5132065,7.29634125 C8.98286775,8.10029806 8.56686775,8.97849676 8.26899304,9.90839309 C8.06006497,8.32610799 7.91706729,6.70534341 7.82359165,5.41444492 Z M8.89436659,14.6133909 L10.6914153,14.6133909 L10.6914153,14.650108 C10.6914153,14.9542721 10.9407332,15.2008639 11.2482599,15.2008639 C11.5557865,15.2008639 11.8051044,14.9542721 11.8051044,14.650108 L11.8051044,13.4384449 L12.4733179,13.4384449 L12.4733179,14.062635 C12.4733179,14.3667991 12.7226357,14.6133909 13.0301624,14.6133909 C13.3376891,14.6133909 13.587007,14.3667991 13.587007,14.062635 L13.587007,13.4384449 L14.2552204,13.4384449 L14.2552204,14.650108 C14.2552204,14.9542721 14.5045383,15.2008639 14.812065,15.2008639 C15.1195916,15.2008639 15.3689095,14.9542721 15.3689095,14.650108 C15.3689095,14.3059222 15.6520093,14.0259179 16,14.0259179 C16.3479907,14.0259179 16.6310905,14.3059222 16.6310905,14.650108 C16.6310905,14.9542721 16.8804084,15.2008639 17.187935,15.2008639 C17.4954617,15.2008639 17.7447796,14.9542721 17.7447796,14.650108 L17.7447796,13.4384449 L18.412993,13.4384449 L18.412993,14.062635 C18.412993,14.3667991 18.6623109,14.6133909 18.9698376,14.6133909 C19.2773643,14.6133909 19.5266821,14.3667991 19.5266821,14.062635 L19.5266821,13.4384449 L20.1948956,13.4384449 L20.1948956,14.650108 C20.1948956,14.9542721 20.4442135,15.2008639 20.7517401,15.2008639 C21.0592668,15.2008639 21.3085847,14.9542721 21.3085847,14.650108 L21.3085847,14.6133909 L23.1056334,14.6133909 C22.6519907,18.9570194 19.6384223,22.3239741 16,22.3239741 C12.3615777,22.3239741 9.34800928,18.9570194 8.89436659,14.6133909 Z M16,23.425486 C16.9903666,23.425486 17.9404919,23.2150972 18.8214942,22.8300086 L16,25.6207257 L13.1785058,22.8300821 C14.0595081,23.2150972 15.0096334,23.425486 16,23.425486 Z M10.647536,22.7578229 L11.177355,22.4084968 L15.0232947,26.2123844 C14.4262088,26.5050194 13.5557494,27.0146523 12.6007239,27.8452657 C12.1988306,27.0508553 11.4464223,25.5619784 10.432891,23.5556847 C10.291007,23.2750194 10.3833689,22.9320086 10.647536,22.7578229 Z M9.28304408,23.5972484 C9.31222274,23.7507257 9.36300696,23.9024406 9.43658469,24.047987 C9.85466357,24.8756631 10.4795174,26.112514 11.0002042,27.1425011 L11.8647239,28.8515335 C11.8835081,28.8885443 11.9018469,28.924527 11.9207796,28.9591879 C12.4487425,30.3701512 12.498116,32.1006998 12.4883898,32.8984881 L11.0339118,32.8984881 L8.92243155,28.7870583 L9.92980046,27.292527 C10.0302552,27.1435292 10.0511926,26.9554644 9.98585615,26.7884017 C9.92051972,26.6213391 9.77715081,26.4961339 9.60148492,26.4527343 L7.52430626,25.9391361 L6.99968445,24.350095 L9.28304408,23.5972484 Z M1.1136891,32.2742981 L1.1136891,29.0228553 C1.1136891,27.385568 2.23532251,25.9646911 3.84126218,25.5676328 L6.0497819,25.0215032 L6.56118794,26.5704492 C6.62065893,26.7505832 6.76959629,26.8878315 6.95550812,26.9338013 L8.56478886,27.3317408 L7.81512761,28.4439741 C7.70361021,28.6094212 7.69091415,28.8215724 7.78193968,28.9989158 L9.7847239,32.8984881 L6.45939675,32.8984881 L6.45939675,31.0993521 C6.45939675,30.7951879 6.21007889,30.5485961 5.9025522,30.5485961 C5.59502552,30.5485961 5.34570766,30.7951879 5.34570766,31.0993521 L5.34570766,32.8984881 L1.74477958,32.8984881 C1.39678886,32.8984881 1.1136891,32.6184838 1.1136891,32.2742981 Z M30.8863109,32.2742981 C30.8863109,32.6184838 30.6032111,32.8984881 30.2552204,32.8984881 L26.6542923,32.8984881 L26.6542923,31.0993521 C26.6542923,30.7951879 26.4049745,30.5485961 26.0974478,30.5485961 C25.7899211,30.5485961 25.5406032,30.7951879 25.5406032,31.0993521 L25.5406032,32.8984881 L22.2154988,32.8984881 L24.2180603,28.9988423 C24.3091601,28.8214989 24.296464,28.6094212 24.1848724,28.4439006 L23.4352854,27.3317408 L25.0445661,26.9338013 C25.230478,26.887905 25.3794153,26.7505832 25.4388863,26.5704492 L25.9502923,25.0214298 L28.1588121,25.567486 C29.7647517,25.9646177 30.8863852,27.3854212 30.8863852,29.0227084 L30.8863852,32.2742981 L30.8863109,32.2742981 Z" id="Shape"></path>
                                        <path d="M13.2492727,19.1801026 C13.9243708,19.7011195 14.9270308,20 16.0000184,20 C17.0730059,20 18.0756659,19.7011195 18.750764,19.1801026 C19.0108845,18.9793273 19.07825,18.5775181 18.9012162,18.2825997 C18.7241823,17.9875951 18.3698869,17.9113677 18.1098423,18.1119708 C17.6262081,18.4851838 16.8374924,18.7080092 15.9999424,18.7080092 C15.1623924,18.7080092 14.3736767,18.4851838 13.8900425,18.1119708 C13.629998,17.9112815 13.2757025,17.9876813 13.0986686,18.2825997 C12.9217867,18.5775181 12.9891522,18.9793273 13.2492727,19.1801026 Z" id="Shape"></path>
                                    </g>
                                </g>
                            </g>
                        </g>
                    </g>
                </g>
            </g>
        </g>
    </g>
</svg>