<?xml version="1.0" encoding="UTF-8"?>
<svg width="49px" height="49px" viewBox="0 0 49 49" version="1.1" xmlns="http://www.w3.org/2000/svg" xmlns:xlink="http://www.w3.org/1999/xlink">
    <!-- Generator: Sketch 50.2 (55047) - http://www.bohemiancoding.com/sketch -->
    <title>maestro</title>
    <desc>Created with Sketch.</desc>
    <defs>
        <linearGradient x1="0%" y1="0%" x2="100%" y2="100%" id="linearGradient-1">
            <stop stop-color="#1D3EDE" offset="0%"></stop>
            <stop stop-color="#01E4F8" offset="100%"></stop>
        </linearGradient>
    </defs>
    <g id="Design" stroke="none" stroke-width="1" fill="none" fill-rule="evenodd">
        <g id="Контакты" transform="translate(-976.000000, -1898.000000)" fill-rule="nonzero">
            <g id="Group-23" transform="translate(-145.000000, 1165.000000)">
                <g id="maestro" transform="translate(1121.000000, 733.000000)">
                    <circle id="Oval" fill="url(#linearGradient-1)" cx="24.5" cy="24.5" r="24.5"></circle>
                    <g id="Group" transform="translate(7.000000, 14.000000)">
                        <g fill="#009DDD" id="Shape">
                            <path d="M17.476155,18.2630341 C19.5853655,16.3572585 20.9163889,13.5901756 20.9163889,10.5168 C20.9163889,7.44270732 19.5849561,4.67716098 17.476155,2.75028293 C15.6331287,1.07028293 13.1777047,0.0452780488 10.4750292,0.0452780488 C4.70269006,0.0452780488 0.0133040936,4.73841951 0.0133040936,10.5163902 C0.0133040936,16.2958976 4.70269006,20.9676293 10.4750292,20.9676293 C13.177807,20.968039 15.6331287,19.9438537 17.476155,18.2630341 Z"></path>
                            <path d="M17.476155,18.2630341 C19.5853655,16.3572585 20.9163889,13.5901756 20.9163889,10.5168 C20.9163889,7.44270732 19.5849561,4.67716098 17.476155,2.75028293 L17.476155,18.2630341 Z"></path>
                        </g>
                        <path d="M24.4991813,0.0456878049 C21.7960965,0.0456878049 19.3391374,1.07069268 17.4762573,2.75069268 C17.1082456,3.09878049 16.7605994,3.46786829 16.4319883,3.85805854 L18.5403801,3.85805854 C18.8275439,4.20532683 19.0937281,4.59551707 19.3391374,4.9638878 L15.6331287,4.9638878 C15.4086988,5.33297561 15.2038158,5.70247317 15.0188889,6.07053659 L19.9327047,6.07053659 C20.0973684,6.43890732 20.2600877,6.80912195 20.3829971,7.17749268 L14.5908041,7.17749268 C14.4674854,7.54627317 14.3648392,7.91607805 14.2832749,8.30442439 L20.6905263,8.30442439 C20.8333918,9.00131707 20.9164912,9.75987805 20.9164912,10.5172098 C20.9164912,11.6648341 20.731155,12.7924829 20.3830994,13.837361 L14.5909064,13.837361 C14.7126901,14.2057317 14.8562719,14.5752293 15.0194006,14.9440098 L19.9332164,14.9440098 C19.7494152,15.3130976 19.5644883,15.702161 19.3392398,16.0506585 L15.633231,16.0506585 C15.8801754,16.4401317 16.1456433,16.8088098 16.4319883,17.1573073 L18.5403801,17.1573073 C18.2134064,17.5467805 17.8648392,17.9158683 17.4762573,18.2639561 C19.3392398,19.9447756 21.7960965,20.968961 24.4991813,20.968961 C30.2722368,20.968961 34.9402339,16.2972293 34.9402339,10.517722 C34.9397222,4.73893171 30.2722368,0.0456878049 24.4991813,0.0456878049 Z" id="Shape" fill="#ED1C2E"></path>
                        <g transform="translate(3.479532, 7.785366)" fill="#FFFFFF" id="Shape">
                            <path d="M27.8561111,4.98570732 C27.8561111,4.80090732 28.0207749,4.65800488 28.204576,4.65800488 C28.3891959,4.65800488 28.5319591,4.80100976 28.5319591,4.98570732 C28.5319591,5.17081463 28.3890936,5.3345122 28.204576,5.3345122 C28.0207749,5.3345122 27.8561111,5.17081463 27.8561111,4.98570732 Z M28.204576,5.25245854 C28.3474415,5.25245854 28.4499854,5.12942927 28.4499854,4.98570732 C28.4499854,4.84239512 28.3473392,4.73964878 28.204576,4.73964878 C28.0609942,4.73964878 27.9392105,4.84239512 27.9392105,4.98570732 C27.9392105,5.12942927 28.0609942,5.25245854 28.204576,5.25245854 Z M28.163538,5.12942927 L28.0819737,5.12942927 L28.0819737,4.84229268 L28.2044737,4.84229268 C28.244693,4.84229268 28.2657749,4.84229268 28.2867544,4.86298537 C28.3070175,4.88326829 28.3269737,4.9032439 28.3269737,4.92434634 C28.3269737,4.96573171 28.3067105,5.00670732 28.2656725,5.00670732 L28.3269737,5.12932683 L28.244693,5.12932683 L28.2044737,5.02658049 L28.163538,5.02658049 L28.163538,5.12942927 Z M28.163538,4.96573171 L28.2044737,4.96573171 C28.2044737,4.96573171 28.2247368,4.96573171 28.244693,4.96573171 C28.244693,4.96573171 28.244693,4.94462927 28.244693,4.92434634 L28.244693,4.9032439 C28.2244298,4.9032439 28.2044737,4.9032439 28.1842105,4.9032439 L28.1631287,4.9032439 L28.1631287,4.96573171 L28.163538,4.96573171 Z"></path>
                            <polygon points="5.6851462 5.3345122 4.3755117 5.3345122 5.15318713 1.25651707 3.37258772 5.3345122 2.18402047 5.3345122 1.9798538 1.2768 1.20217836 5.3345122 0.0143274854 5.3345122 1.01796784 0.0272487805 3.06434211 0.0272487805 3.16657895 3.30529756 4.60147661 0.0272487805 6.70792398 0.0272487805"></polygon>
                            <path d="M20.2207895,5.27356098 C19.8520614,5.37518049 19.5858772,5.4161561 19.278348,5.4161561 C18.6238889,5.4161561 18.2543421,5.08845366 18.2543421,4.47433171 C18.2543421,4.35089268 18.275424,4.22745366 18.2952778,4.08414146 L18.3768421,3.65369268 L18.4396784,3.3264 L19.0328363,0.0276585366 L20.3222076,0.0276585366 L20.1388158,1.01045854 L20.813538,1.01045854 L20.6297368,2.05646341 L19.9542982,2.05646341 L19.6269152,3.85918537 C19.6058333,3.94123902 19.5859795,4.00290732 19.5859795,4.04357561 C19.5859795,4.26935122 19.7295614,4.37086829 20.0370906,4.37086829 C20.1799561,4.37086829 20.3017398,4.35058537 20.3848392,4.3302 L20.2207895,5.27356098 Z"></path>
                            <path d="M24.0080556,1.05225366 C23.9054094,1.01045854 23.8855556,1.01045854 23.8651901,1.01045854 C23.8031725,0.989356098 23.7625439,0.989356098 23.7625439,0.969790244 C23.7207895,0.969790244 23.6802632,0.969790244 23.6196784,0.969790244 C23.1888304,0.969790244 22.8821199,1.15418049 22.4927193,1.66586341 L22.6152193,1.01045854 L21.4273684,1.01045854 L20.6293275,5.3345122 L21.9396784,5.3345122 C22.4103363,2.69004878 22.5948538,2.21934146 23.2290497,2.21934146 C23.2699854,2.21934146 23.3324123,2.24003415 23.3929971,2.24003415 L23.5365789,2.28070244 L24.0080556,1.05225366 Z"></path>
                            <path d="M15.060848,2.38303902 C15.060848,2.91623415 15.3683772,3.30529756 16.0644883,3.57245854 C16.5971637,3.79710732 16.6791374,3.85918537 16.6791374,4.06426829 C16.6791374,4.33030244 16.4329094,4.45374146 15.9213158,4.45374146 C15.5322222,4.45374146 15.1630848,4.39207317 14.7334649,4.26976098 L14.5696199,5.27397073 L14.6316374,5.27397073 L14.8560673,5.33492195 C14.9376316,5.33492195 15.0601316,5.35561463 15.2038158,5.35561463 C15.511345,5.39587317 15.7571637,5.39587317 15.9413743,5.39587317 C17.3130263,5.39587317 17.9682018,4.94514146 17.9682018,3.96193171 C17.9682018,3.36737561 17.7020175,3.01939024 17.0265789,2.75294634 C16.473231,2.54786341 16.4123392,2.48650244 16.4123392,2.28152195 C16.4123392,2.05687317 16.6374854,1.93343415 17.0675146,1.93343415 C17.312924,1.93343415 17.6809357,1.95453659 18.0084211,1.99438537 L18.1930409,1.01117561 C17.8452924,0.950634146 17.3336988,0.929531707 17.0465351,0.929531707 C15.5731579,0.928814634 15.060848,1.58421951 15.060848,2.38303902 Z"></path>
                            <path d="M9.90233918,5.3345122 L8.83739766,5.3345122 L8.85847953,4.88296098 C8.53109649,5.23176585 8.08070175,5.39546341 7.48682749,5.39546341 C6.79143275,5.39546341 6.29969298,4.92434634 6.29969298,4.2275561 C6.29969298,3.18185854 7.13795322,2.56742927 8.59270468,2.56742927 C8.73475146,2.56742927 8.91967836,2.56742927 9.1245614,2.58853171 C9.16549708,2.44521951 9.16549708,2.38303902 9.16549708,2.3220878 C9.16549708,2.03536098 8.93953216,1.93261463 8.32570175,1.93261463 C7.95697368,1.93261463 7.54874269,1.97359024 7.26157895,2.03536098 L7.07777778,2.09702927 L6.95445906,2.11700488 L7.13826023,1.15418049 C7.79425439,0.989356098 8.20320175,0.928814634 8.69524854,0.928814634 C9.82026316,0.928814634 10.3939766,1.35854634 10.3939766,2.1779561 C10.3939766,2.40373171 10.3737135,2.56773659 10.2921491,3.03926341 L10.0259649,4.57636098 L9.98502924,4.84239512 L9.94327485,5.06858049 L9.9230117,5.21117561 L9.90233918,5.3345122 Z M8.96071637,3.40763415 C8.81631579,3.38735122 8.75583333,3.38735122 8.67426901,3.38735122 C7.93671053,3.38735122 7.56869883,3.61271707 7.56869883,4.04357561 C7.56869883,4.30960976 7.73182749,4.49430732 8.01827485,4.49430732 C8.55176901,4.49430732 8.94004386,4.04357561 8.96071637,3.40763415 Z"></path>
                            <path d="M14.180424,5.23176585 C13.730848,5.35479512 13.3008187,5.41574634 12.8497076,5.41574634 C11.3980263,5.41574634 10.6390789,4.73923902 10.6390789,3.46889268 C10.6390789,1.9931561 11.6017836,0.907302439 12.9121345,0.907302439 C13.9762573,0.907302439 14.6533333,1.52214146 14.6533333,2.46468293 C14.6533333,2.79197561 14.6115789,3.10093171 14.5097515,3.53066341 L11.9084942,3.53066341 C11.9084942,3.61230732 11.9084942,3.63259024 11.9084942,3.67438537 C11.9084942,4.16619512 12.2772222,4.43222927 13.0347368,4.43222927 C13.5057018,4.43222927 13.935424,4.35058537 14.385307,4.16660488 L14.180424,5.23176585 Z M13.4850292,2.67089268 C13.4850292,2.58853171 13.4850292,2.50606829 13.4850292,2.44511707 C13.4850292,2.09702927 13.2590643,1.89122927 12.8707895,1.89122927 C12.4610234,1.89122927 12.174576,2.1779561 12.0509503,2.67089268 L13.4850292,2.67089268 Z"></path>
                            <path d="M28.0609942,3.36696585 C27.8561111,4.80049756 26.8531871,5.43602927 25.5217544,5.43602927 C24.0692544,5.43602927 23.4760965,4.55556585 23.4760965,3.44901951 C23.4760965,1.93230732 24.4782018,0.8862 26.0340643,0.8862 C27.3854532,0.8862 28.1019298,1.74709756 28.1019298,2.83336098 C28.1023392,3.10134146 28.1023392,3.12131707 28.0609942,3.36696585 Z M26.7103216,2.81307805 C26.7103216,2.36234634 26.5257018,1.95371707 25.9946637,1.95371707 C25.3379532,1.95371707 24.9290058,2.73143415 24.9290058,3.42863415 C24.9290058,4.00280488 25.2161696,4.39186829 25.6665643,4.39186829 C25.9530117,4.39186829 26.5672515,4.00280488 26.6694883,3.34699024 C26.7103216,3.18226829 26.7103216,2.99859512 26.7103216,2.81307805 Z"></path>
                        </g>
                    </g>
                </g>
            </g>
        </g>
    </g>
</svg>