<?xml version="1.0" encoding="UTF-8"?>
<svg width="49px" height="49px" viewBox="0 0 49 49" version="1.1" xmlns="http://www.w3.org/2000/svg" xmlns:xlink="http://www.w3.org/1999/xlink">
    <!-- Generator: Sketch 50.2 (55047) - http://www.bohemiancoding.com/sketch -->
    <title>mastercard</title>
    <desc>Created with Sketch.</desc>
    <defs>
        <linearGradient x1="0%" y1="0%" x2="100%" y2="100%" id="linearGradient-1">
            <stop stop-color="#1D3EDE" offset="0%"></stop>
            <stop stop-color="#01E4F8" offset="100%"></stop>
        </linearGradient>
    </defs>
    <g id="Design" stroke="none" stroke-width="1" fill="none" fill-rule="evenodd">
        <g id="Контакты" transform="translate(-1043.000000, -1898.000000)" fill-rule="nonzero">
            <g id="Group-23" transform="translate(-145.000000, 1165.000000)">
                <g id="mastercard" transform="translate(1188.000000, 733.000000)">
                    <circle id="Oval" fill="url(#linearGradient-1)" cx="24.5" cy="24.5" r="24.5"></circle>
                    <path d="M17.9298527,14 C11.8901122,14.038098 7,18.9520384 7,25.0003528 C7,31.0724531 11.9278877,36 18.0004545,36 C20.8489714,36 23.4468971,34.9142061 25.4015279,33.1338791 L25.4011239,33.133476 L25.402639,33.133476 C25.8036251,32.7688234 26.1770372,32.3743374 26.519845,31.9553599 L24.2666462,31.9553599 C23.965452,31.5922191 23.691832,31.2127507 23.4461901,30.8216915 L27.3325238,30.8216915 C27.5698833,30.4438356 27.7830019,30.0512647 27.9738996,29.6446841 L22.8053192,29.6446841 C22.6288651,29.2668282 22.475743,28.8817156 22.3453467,28.4891446 L28.4338722,28.4891446 C28.801628,27.3924656 29,26.218885 29,25.0003528 C29,24.1910216 28.9119244,23.4035615 28.7467828,22.6440198 L22.0222347,22.6440198 C22.1061691,22.2529607 22.2108093,21.8671425 22.3355493,21.4888835 L28.4271049,21.4888835 C28.2910524,21.0853266 28.132678,20.6927556 27.9527898,20.3110698 L22.8046122,20.3110698 C22.9901567,19.9139633 23.2006492,19.5289515 23.4353826,19.1555303 L27.3193932,19.1555303 C27.0605198,18.7433056 26.7747793,18.3496259 26.4660098,17.9785229 L24.3004825,17.9785229 C24.635715,17.5836338 25.0037739,17.2122284 25.403245,16.8679351 C23.4493212,15.0868018 20.8510925,14.0003024 18.0010605,14.0003024 C17.9763145,14 17.9528816,14 17.9298527,14 Z" id="Shape" fill="#931B1D"></path>
                    <path d="M42.999899,25.0009573 C43.00101,31.0738175 38.0788571,35.9981857 32.0020204,35.9999994 C25.9278097,36.0019139 21.0018186,31.0793594 21.0000006,25.0054917 L21.0000006,25.0009573 C20.9980815,18.9262835 25.9218505,14.0015122 31.9971722,14.0000007 C38.0720898,13.997784 42.9984849,18.9206408 43,24.9949116 C42.999899,24.9949116 42.999899,24.9976322 42.999899,25.0009573 Z" id="Shape" fill="#F16622"></path>
                    <path d="M42.999899,25.0004031 C43.00101,31.0736489 38.0788571,35.9988908 32.0020204,35.9999993 C25.9278097,36.0022161 21.0018186,31.0789894 21.0000006,25.0060458 L21.0000006,25.0004031 C20.9980815,18.9267542 25.9218505,14.0015122 31.9971722,14.0000007 C38.0720898,13.9977839 42.9984849,18.9207083 43,24.9946595 C42.999899,24.9947603 42.999899,24.9981862 42.999899,25.0004031 Z" id="Shape" fill="#F7981D"></path>
                    <path d="M17.9298527,14.0001008 C11.8901122,14.0389029 7,18.9515546 7,25.0000504 C7,31.0723314 11.9278877,36 18.0004545,36 C20.8489714,36 23.4468971,34.9135404 25.4015279,33.133581 L25.4011239,33.1324724 L25.402639,33.1324724 C25.8036251,32.7681355 26.1770372,32.3748734 26.519845,31.9543995 L24.2666462,31.9543995 C23.965452,31.5919775 23.691832,31.2133292 23.4461901,30.8222844 L27.3325238,30.8222844 C27.5698833,30.4440393 27.7830019,30.050374 27.9738996,29.6442115 L22.8053192,29.6442115 C22.6288651,29.2659664 22.475743,28.8809686 22.3453467,28.4891175 L28.4338722,28.4891175 C28.801628,27.3916724 29,26.218538 29,25.0000504 C29,24.191152 28.9119244,23.4033177 28.7467828,22.6442069 L22.0222347,22.6442069 C22.1061691,22.2535653 22.2108093,21.866955 22.3355493,21.489113 L28.4271049,21.489113 C28.2910524,21.0852685 28.132678,20.6926111 27.9527898,20.3106369 L22.8046122,20.3106369 C22.9901567,19.9150568 23.2006492,19.5285473 23.4353826,19.1555429 L27.3193932,19.1555429 C27.0605198,18.7437365 26.7747793,18.3503736 26.4660098,17.9777724 L24.3004825,17.9777724 C24.635715,17.583704 25.0037739,17.2122114 25.403245,16.8672253 C23.4493212,15.0864596 20.8510925,14 18.0010605,14 C17.9763145,14.0001008 17.9528816,14.0001008 17.9298527,14.0001008 Z" id="Shape" fill="#CB2026"></path>
                    <g id="Group" transform="translate(7.000000, 22.000000)" fill="#FFFFFF">
                        <path d="M14.0770203,5.80582759 L14.2251599,4.78427586 C14.1444767,4.78427586 14.0256395,4.81913793 13.9209448,4.81913793 C13.5105087,4.81913793 13.4648256,4.59693103 13.4914826,4.43244828 L13.8230669,2.34724138 L14.447064,2.34724138 L14.5978488,1.21655172 L14.0096657,1.21655172 L14.1296221,0.514344828 L12.9494913,0.514344828 C12.9239535,0.54062069 12.2528488,4.46762069 12.2528488,4.94482759 C12.2528488,5.65282759 12.6423256,5.96824138 13.1927616,5.96358621 C13.6228343,5.95955172 13.9589971,5.83841379 14.0770203,5.80582759 Z" id="Shape"></path>
                        <path d="M14.4512355,3.85768966 C14.4512355,5.55662069 15.5510901,5.96068966 16.4887645,5.96068966 C17.3545058,5.96068966 17.7348256,5.76289655 17.7348256,5.76289655 L17.9430959,4.60324138 C17.9430959,4.60324138 17.2849128,4.90055172 16.690218,4.90055172 C15.4236047,4.90055172 15.6456105,3.93755172 15.6456105,3.93755172 L18.0436192,3.93755172 C18.0436192,3.93755172 18.1977616,3.15796552 18.1977616,2.84058621 C18.1977616,2.049 17.810218,1.08362069 16.5154215,1.08362069 C15.3287791,1.08393103 14.4512355,2.38562069 14.4512355,3.85768966 Z M16.520407,2.15958621 C17.1859157,2.15958621 17.062907,2.92210345 17.062907,2.98365517 L15.7532548,2.98365517 C15.7528488,2.90513793 15.8766715,2.15958621 16.520407,2.15958621 Z" id="Shape"></path>
                        <path d="M23.9905669,5.80582759 L24.2018895,4.494 C24.2018895,4.494 23.6228634,4.79131034 23.2257558,4.79131034 C22.3890116,4.79131034 22.053561,4.13865517 22.053561,3.44037931 C22.053561,2.02055172 22.7735029,1.23941379 23.5756541,1.23941379 C24.1764535,1.23941379 24.6591279,1.58389655 24.6591279,1.58389655 L24.8514244,0.311172414 C24.8514244,0.311172414 24.136061,0.0154137931 23.5231541,0.0154137931 C22.1610029,0.0154137931 20.8353779,1.21810345 20.8353779,3.48093103 C20.8353779,4.97896552 21.5514535,5.9702069 22.9592878,5.9702069 C23.3570058,5.97041379 23.9905669,5.80582759 23.9905669,5.80582759 Z" id="Shape"></path>
                        <path d="M7.58838663,1.10213793 C6.7794186,1.10213793 6.15918605,1.36655172 6.15918605,1.36655172 L5.98825581,2.40237931 C5.98825581,2.40237931 6.50063953,2.19103448 7.27389535,2.19103448 C7.71322674,2.19103448 8.03412791,2.241 8.03412791,2.60524138 C8.03412791,2.82589655 7.9949564,2.90751724 7.9949564,2.90751724 C7.9949564,2.90751724 7.64892442,2.87772414 7.48827035,2.87772414 C6.46838663,2.87772414 5.39630814,3.32131034 5.39630814,4.65982759 C5.39630814,5.71344828 6.09905523,5.95572414 6.53502907,5.95572414 C7.36760174,5.95572414 7.72543605,5.40568966 7.74527616,5.40331034 L7.70640988,5.86313793 L8.74501453,5.86313793 L9.20866279,2.55165517 C9.20866279,1.14734483 8.00594477,1.10213793 7.58838663,1.10213793 Z M7.84152616,3.79696552 C7.86401163,3.99941379 7.71668605,4.94772414 7.00630814,4.94772414 C6.64002907,4.94772414 6.54449128,4.66210345 6.54449128,4.49327586 C6.54449128,4.16462069 6.72,3.76944828 7.58492733,3.76944828 C7.78556686,3.76944828 7.80723837,3.79189655 7.84152616,3.79696552 Z" id="Shape"></path>
                        <path d="M10.3129942,5.93048276 C10.578343,5.93048276 12.0973837,5.9997931 12.0973837,4.40265517 C12.0973837,2.90927586 10.6914826,3.20389655 10.6914826,2.60389655 C10.6914826,2.30627586 10.9207122,2.211 11.3393895,2.211 C11.5057413,2.211 12.1457122,2.26562069 12.1457122,2.26562069 L12.2949709,1.20351724 C12.2949709,1.20351724 11.8807703,1.1097931 11.2069186,1.1097931 C10.3332413,1.1097931 9.44806686,1.46358621 9.44806686,2.67858621 C9.44806686,4.0562069 10.925189,3.91686207 10.925189,4.49668966 C10.925189,4.8837931 10.5121076,4.91555172 10.1938517,4.91555172 C9.64412791,4.91555172 9.14883721,4.72313793 9.14649709,4.73203448 L8.98930233,5.78213793 C9.01677326,5.79196552 9.32281977,5.93048276 10.3129942,5.93048276 Z" id="Shape"></path>
                        <path d="M33.7627907,0.149482759 L33.5088372,1.7582069 C33.5088372,1.7582069 33.0645203,1.13389655 32.369811,1.13389655 C31.2882703,1.13389655 30.3875291,2.46155172 30.3875291,3.98782759 C30.3875291,4.97296552 30.8675581,5.9372069 31.8506105,5.9372069 C32.5575291,5.9372069 32.948532,5.43517241 32.948532,5.43517241 L32.8971512,5.86365517 L34.0446221,5.86365517 L34.9464826,0.146896552 L33.7627907,0.149482759 Z M33.2153052,3.28758621 C33.2153052,3.92203448 32.9062064,4.76927586 32.2669477,4.76927586 C31.842064,4.76927586 31.6437645,4.40617241 31.6437645,3.83637931 C31.6437645,2.90503448 32.0542006,2.2887931 32.571875,2.2887931 C32.9971657,2.28889655 33.2153052,2.58693103 33.2153052,3.28758621 Z" id="Shape"></path>
                        <polygon id="Shape" points="1.19976744 5.86862069 1.91889535 1.55265517 2.02359012 5.86862069 2.83672965 5.86862069 4.35302326 1.55265517 3.68110465 5.86862069 4.8887064 5.86862069 5.81956395 0.145655172 3.9515407 0.145655172 2.78850291 3.65648276 2.72796512 0.145655172 1.00675872 0.145655172 0.0629796512 5.86862069"></polygon>
                        <path d="M19.3775872,5.87668966 C19.7209738,3.88748276 19.784564,2.27141379 20.6046221,2.56603448 C20.7481831,1.79648276 20.8863517,1.49886207 21.0424273,1.17258621 C21.0424273,1.17258621 20.969375,1.15675862 20.8147238,1.15675862 C20.2874855,1.15675862 19.8956686,1.89217241 19.8956686,1.89217241 L19.9999564,1.21706897 L18.9012209,1.21706897 L18.1661192,5.87668966 L19.3775872,5.87668966 Z" id="Shape"></path>
                        <path d="M26.7125291,1.10213793 C25.903561,1.10213793 25.2837355,1.36655172 25.2837355,1.36655172 L25.1132122,2.40237931 C25.1132122,2.40237931 25.6244767,2.19103448 26.3984448,2.19103448 C26.8373692,2.19103448 27.1590843,2.241 27.1590843,2.60524138 C27.1590843,2.82589655 27.1195058,2.90751724 27.1195058,2.90751724 C27.1195058,2.90751724 26.7734738,2.87772414 26.6115988,2.87772414 C25.5913081,2.87772414 24.5204506,3.32131034 24.5204506,4.65982759 C24.5204506,5.71344828 25.2236047,5.95572414 25.6591715,5.95572414 C26.4917442,5.95572414 26.8499855,5.40568966 26.8690116,5.40331034 L26.8305523,5.86313793 L27.8698692,5.86313793 L28.3332122,2.55165517 C28.3336192,1.14734483 27.1313081,1.10213793 26.7125291,1.10213793 Z M26.9660756,3.79696552 C26.988561,3.99941379 26.8419477,4.94772414 26.1304506,4.94772414 C25.7645785,4.94772414 25.6697529,4.66210345 25.6697529,4.49327586 C25.6697529,4.16462069 25.8452616,3.76944828 26.7086628,3.76944828 C26.9105233,3.76944828 26.9314826,3.79189655 26.9660756,3.79696552 Z" id="Shape"></path>
                        <path d="M29.281875,5.87668966 C29.6256686,3.88748276 29.6892587,2.27141379 30.5092151,2.56603448 C30.6527762,1.79648276 30.7909448,1.49886207 30.9478343,1.17258621 C30.9478343,1.17258621 30.873561,1.15675862 30.7198256,1.15675862 C30.191061,1.15675862 29.8004651,1.89217241 29.8004651,1.89217241 L29.9055669,1.21706897 L28.8061192,1.21706897 L28.0706105,5.87637931 L29.2819767,5.87637931 L29.2819767,5.87668966 L29.281875,5.87668966 Z" id="Shape"></path>
                    </g>
                </g>
            </g>
        </g>
    </g>
</svg>