<?xml version="1.0" encoding="UTF-8"?>
<svg width="39px" height="39px" viewBox="0 0 39 39" version="1.1" xmlns="http://www.w3.org/2000/svg" xmlns:xlink="http://www.w3.org/1999/xlink">
    <!-- Generator: Sketch 49.3 (51167) - http://www.bohemiancoding.com/sketch -->
    <title>passport</title>
    <desc>Created with Sketch.</desc>
    <defs>
        <linearGradient x1="0%" y1="0%" x2="100%" y2="100%" id="linearGradient-1">
            <stop stop-color="#1D3EDE" offset="0%"></stop>
            <stop stop-color="#01E4F8" offset="100%"></stop>
        </linearGradient>
    </defs>
    <g id="Design" stroke="none" stroke-width="1" fill="none" fill-rule="evenodd">
        <g id="Основной-концепт" transform="translate(-563.000000, -1480.000000)" fill="url(#linearGradient-1)" fill-rule="nonzero">
            <g id="Частным-лицам" transform="translate(404.000000, 1400.000000)">
                <g id="Group-7-Copy" transform="translate(0.000000, 56.000000)">
                    <g id="Group-5">
                        <g id="registration" transform="translate(159.000000, 24.000000)">
                            <g id="piggy-bank">
                                <g id="passport">
                                    <path d="M12.5,12 C8.36444475,12 5,15.5888195 5,20 C5,24.4111805 8.36451828,28 12.5,28 C16.6354817,28 20,24.4111805 20,20 C20,15.5888195 16.6354817,12 12.5,12 Z M6.47052912,20 C6.47052912,19.6250944 6.50251473,19.2581888 6.56045648,18.9006951 L8.43694546,18.9006951 C8.41253346,19.2621888 8.39981274,19.6291728 8.39981274,20 C8.39981274,20.3708272 8.41260699,20.7378112 8.43694546,21.0993049 L6.56045648,21.0993049 C6.50251473,20.7418112 6.47052912,20.3749056 6.47052912,20 Z M7.01597565,22.6679477 L8.62430024,22.6679477 C8.80341964,23.6970559 9.08606947,24.6449867 9.46224963,25.4516613 C9.48467632,25.4998186 9.50747066,25.5471132 9.53041206,25.5940156 C8.43032775,24.9268718 7.54568672,23.9019206 7.01597565,22.6679477 Z M9.46224963,14.5484171 C9.08606947,15.3550917 8.80334611,16.3030226 8.62430024,17.3321307 L7.01597565,17.3321307 C7.54576025,16.0981578 8.43032775,15.073285 9.53041206,14.4061412 C9.50747066,14.4529652 9.48467632,14.5003382 9.46224963,14.5484171 Z M11.7646987,26.1376288 C11.0856479,25.6029569 10.4539505,24.3652193 10.119462,22.6679477 L11.7646987,22.6679477 L11.7646987,26.1376288 Z M11.7646987,21.0993049 L9.9109305,21.0993049 C9.88475377,20.7451053 9.87034187,20.3785919 9.87034187,20 C9.87034187,19.6214081 9.88475377,19.2548947 9.91085697,18.9006951 L11.7646987,18.9006951 L11.7646987,21.0993049 Z M11.7646987,17.3321307 L10.119462,17.3321307 C10.4540241,15.6349376 11.0856479,14.3972 11.7646987,13.8625281 L11.7646987,17.3321307 Z M17.9839508,17.3321307 L16.3756998,17.3321307 C16.1965804,16.3030226 15.913857,15.3550917 15.5377504,14.5484171 C15.5153237,14.5003382 15.4926029,14.4530437 15.4696615,14.4062197 C16.5696723,15.0733635 17.4542397,16.0982363 17.9839508,17.3321307 Z M13.2353013,13.8624496 C13.9144256,14.3972 14.5460495,15.6349376 14.8806116,17.3321307 L13.2353013,17.3321307 L13.2353013,13.8624496 Z M13.2353013,26.1376288 L13.2353013,22.6679477 L14.8806116,22.6679477 C14.5459759,24.3652193 13.9143521,25.6029569 13.2353013,26.1376288 Z M15.0890695,21.0993049 L13.2352278,21.0993049 L13.2352278,18.9006951 L15.0890695,18.9006951 C15.1151727,19.2548947 15.1295846,19.6214081 15.1295846,20 C15.1295846,20.3785919 15.1151727,20.7451053 15.0890695,21.0993049 Z M15.4695879,25.5938588 C15.4925293,25.5470348 15.5153237,25.4996618 15.5377504,25.4515829 C15.9139305,24.6449083 16.1966539,23.6969774 16.3756998,22.6678693 L17.9839508,22.6678693 C17.4542397,23.9019206 16.5696723,24.9267934 15.4695879,25.5938588 Z M16.5630545,21.0993049 C16.5874665,20.7378896 16.6001873,20.3708272 16.6001873,20 C16.6002608,19.6291728 16.5874665,19.2621888 16.5630545,18.9006951 L18.43947,18.9006951 C18.4974853,19.2581888 18.5293973,19.6250944 18.5293973,20 C18.5293973,20.3749056 18.4974117,20.7418112 18.43947,21.0993049 L16.5630545,21.0993049 Z" id="Shape"></path>
                                    <path d="M27.7069,21.293 C27.521,21.107 27.263,21 27,21 C26.7369,21 26.479,21.107 26.293,21.293 C26.107,21.479 26,21.737 26,22 C26,22.263 26.1069,22.521 26.293,22.707 C26.4791,22.893 26.7369,23 27,23 C27.263,23 27.521,22.893 27.7069,22.707 C27.8929,22.521 28,22.263 28,22 C28,21.737 27.893,21.479 27.7069,21.293 Z" id="Shape"></path>
                                    <path d="M17.7069,30.293 C17.521,30.107 17.263,30 17,30 C16.737,30 16.479,30.107 16.293,30.293 C16.107,30.479 16,30.737 16,31 C16,31.263 16.1069,31.521 16.293,31.707 C16.4791,31.893 16.737,32 17,32 C17.263,32 17.521,31.893 17.7069,31.707 C17.8939,31.521 18,31.263 18,31 C18,30.737 17.8939,30.479 17.7069,30.293 Z" id="Shape"></path>
                                    <path d="M14.2577984,30 L8.74220158,30 C8.33235787,30 8,30.4477 8,31 C8,31.5523 8.33235787,32 8.74220158,32 L14.2577984,32 C14.6677164,32 15,31.5523 15,31 C14.9999258,30.4477 14.6675679,30 14.2577984,30 Z" id="Shape"></path>
                                    <path d="M16.2207666,33 L9.77923343,33 C9.34894073,33 9,33.4477 9,34 C9,34.5523 9.34894073,35 9.77923343,35 L16.2207666,35 C16.6510593,35 17,34.5523 17,34 C17,33.4477 16.6510593,33 16.2207666,33 Z" id="Shape"></path>
                                    <path d="M37.096476,10.1074363 L20.4730598,0.509539859 C18.6540787,-0.540600225 16.3203288,0.0849438322 15.2704537,1.9036073 L14.083241,3.96001102 L3.80858708,3.96001102 C1.70853216,3.96001102 0,5.66860249 0,7.76873031 L0,35.1912807 C0,37.2914085 1.70853216,39 3.80858708,39 L23.0037136,39 C24.9755715,39 26.6020667,37.4935753 26.7932578,35.5710862 L38.4904951,15.310223 C39.5405225,13.4914834 38.9151525,11.1575002 37.096476,10.1074363 Z M16.5896721,2.66535115 C17.2196886,1.57400073 18.6201061,1.19891805 19.7112663,1.82888022 L23.4489374,3.98690057 C23.3027639,3.96976134 23.1543813,3.96001102 23.0037136,3.96001102 L15.8421988,3.96001102 L16.5896721,2.66535115 Z M37.1711244,14.5484792 L26.8122245,32.4912034 L26.8122245,24.8824487 C26.8122245,24.4617376 26.4711275,24.1207049 26.0505071,24.1207049 C25.6298868,24.1207049 25.2887897,24.4617376 25.2887897,24.8824487 L25.2887897,35.1912807 C25.2887897,35.2291394 25.2876471,35.2666933 25.2858952,35.3040188 C25.2858952,35.3047044 25.2858952,35.3053138 25.2858952,35.3059993 C25.2258718,36.5129825 24.2252037,37.4765123 23.0036374,37.4765123 L3.80858708,37.4765123 C2.54855413,37.4765123 1.52343483,36.4513574 1.52343483,35.1912807 L1.52343483,7.76873031 C1.52343483,6.50865362 2.54855413,5.48349873 3.80858708,5.48349873 L23.0037136,5.48349873 C24.2637466,5.48349873 25.2888659,6.50865362 25.2888659,7.76873031 L25.2888659,17.8998475 C25.2888659,18.3205586 25.6299629,18.6615913 26.0505833,18.6615913 C26.4712036,18.6615913 26.8123007,18.3205586 26.8123007,17.8998475 L26.8123007,7.76873031 C26.8123007,6.91557719 26.5303129,6.12701995 26.0546966,5.4913447 L36.3348348,11.4267767 C36.8633905,11.7320074 37.241507,12.2247795 37.3995634,12.8143693 C37.5575436,13.403959 37.4763445,14.0198289 37.1711244,14.5484792 Z" id="Shape"></path>
                                </g>
                            </g>
                        </g>
                    </g>
                </g>
            </g>
        </g>
    </g>
</svg>