<?xml version="1.0" encoding="UTF-8"?>
<svg width="49px" height="49px" viewBox="0 0 49 49" version="1.1" xmlns="http://www.w3.org/2000/svg" xmlns:xlink="http://www.w3.org/1999/xlink">
    <!-- Generator: Sketch 50.2 (55047) - http://www.bohemiancoding.com/sketch -->
    <title>paypal</title>
    <desc>Created with Sketch.</desc>
    <defs>
        <linearGradient x1="0%" y1="0%" x2="100%" y2="100%" id="linearGradient-1">
            <stop stop-color="#1D3EDE" offset="0%"></stop>
            <stop stop-color="#01E4F8" offset="100%"></stop>
        </linearGradient>
    </defs>
    <g id="Design" stroke="none" stroke-width="1" fill="none" fill-rule="evenodd">
        <g id="Контакты" transform="translate(-1111.000000, -1898.000000)" fill-rule="nonzero">
            <g id="Group-23" transform="translate(-145.000000, 1165.000000)">
                <g id="paypal" transform="translate(1256.000000, 733.000000)">
                    <circle id="Oval" fill="url(#linearGradient-1)" cx="24.5" cy="24.5" r="24.5"></circle>
                    <g id="Group" transform="translate(4.000000, 21.000000)">
                        <g transform="translate(20.446681, 0.000000)" fill="#E5E8EA" id="Shape">
                            <path d="M11.0783187,1.66029434 C10.0702973,1.66029434 9.27318339,1.91357107 8.66336112,2.02921635 L8.47596729,3.48098113 C8.7808273,3.34218742 9.74212803,3.08958868 10.5393441,3.06566541 C11.3369692,3.04280755 11.8055049,3.2040717 11.6414203,3.84951572 C9.27359232,3.84951572 7.67875118,4.30977233 7.35058194,5.76163396 C6.88122837,8.25033208 9.76553948,8.18146792 10.914643,7.09823774 L10.7742765,7.69690063 L12.884374,7.69690063 L13.7986474,3.73319245 C14.1729239,2.05168679 12.5555914,1.63743648 11.0783187,1.66029434 Z M11.2190941,5.71562767 C11.1020368,6.24542642 10.6568103,6.47594214 10.1174269,6.49947799 C9.64848223,6.52233585 9.22646272,6.12978113 9.53142498,5.66923396 C9.76594841,5.27784151 10.4226958,5.18573208 10.8208949,5.18573208 C10.9849796,5.18573208 11.1727823,5.18573208 11.3372759,5.18573208 C11.2894306,5.36995094 11.2657125,5.53121509 11.2190941,5.71562767 Z"></path>
                            <polygon points="15.6036804 0.0932716981 13.8577383 7.69728805 16.0010617 7.69728805 17.7687795 0.0932716981"></polygon>
                            <path d="M5.75533187,0.116420126 L1.83089808,0.116420126 L0.0919078327,7.69728805 L2.37099717,7.69728805 L2.95894149,5.18582893 L4.58015885,5.18582893 C6.1783737,5.18582893 7.49432211,4.26425031 7.84661843,2.69713082 C8.24635105,0.922837736 6.88337528,0.116420126 5.75533187,0.116420126 Z M5.68571092,2.69713082 C5.54452658,3.2730327 4.93327304,3.73357987 4.34532872,3.73357987 L3.28803083,3.73357987 L3.75820226,1.65990692 L4.88593897,1.65990692 C5.47378106,1.66029434 5.82607738,2.12093836 5.68571092,2.69713082 Z"></path>
                        </g>
                        <g transform="translate(0.000000, 0.096855)" fill="#FFFFFF" id="Shape">
                            <path d="M10.9737339,1.56343899 C9.97757156,1.56343899 9.1899654,1.81671572 8.61040422,1.93236101 L8.42597515,3.38383522 C8.70405002,3.24504151 9.65349166,2.99244277 10.4412001,2.9685195 C11.2288062,2.94566164 11.692128,3.10692579 11.5524772,3.75236981 C9.21368355,3.75236981 7.63877792,4.21262642 7.31439132,5.66448805 C6.85076282,8.15318616 9.6994967,8.08432201 10.8114895,7.00109182 L10.6729632,7.59975472 L12.7807093,7.59975472 L13.6838393,3.63604654 C14.0539242,1.95483145 12.4324001,1.54058113 10.9737339,1.56343899 Z M11.1359783,5.61877233 C11.0197389,6.14857107 10.5560082,6.37908679 10.0242922,6.40262264 C9.56107266,6.4254805 9.16706511,6.03292579 9.4684492,5.57237862 C9.6994967,5.18098616 10.3482699,5.08887673 10.7189682,5.08887673 C10.9045219,5.08887673 11.0663573,5.08887673 11.2522177,5.08887673 C11.2047814,5.2730956 11.1588786,5.43435975 11.1359783,5.61877233 Z"></path>
                            <polygon points="14.6016908 1.67288553 16.7094369 1.67288553 17.0495675 5.20316604 19.1114108 1.67288553 21.2864265 1.67288553 16.2787276 10.1217711 13.9223498 10.1217711 15.4623938 7.63820629"></polygon>
                            <path d="M5.73151148,0.0195647799 L1.79675212,0.0195647799 L0.0531613715,7.6004327 L2.36210286,7.6004327 L2.9274536,5.08897358 L4.57658069,5.08897358 C6.15526895,5.08897358 7.4746933,4.16739497 7.82811419,2.60027547 C8.22866467,0.82598239 6.88603334,0.0195647799 5.73151148,0.0195647799 Z M5.66076596,2.60027547 C5.51958163,3.17617736 4.93092167,3.63672453 4.34144385,3.63672453 L3.25776974,3.63672453 L3.75278389,1.56305157 L4.88358761,1.56305157 C5.44883611,1.56343899 5.82566845,2.02408302 5.66076596,2.60027547 Z"></path>
                        </g>
                    </g>
                    <g id="Group" transform="translate(43.000000, 21.000000)" fill="#FFFFFF">
                        <polygon id="Shape" points="0.412666667 1.85233333 0.412666667 0.308833333 0.0837142857 0.308833333 0.0837142857 0.101833333 0.876285714 0.101833333 0.876285714 0.308833333 0.545619048 0.308833333 0.545619048 1.85233333"></polygon>
                        <path d="M1.00714286,1.85233333 L1.00714286,0.101833333 L1.20561905,0.101833333 L1.44257143,1.34033333 C1.46466667,1.45566667 1.48,1.54116667 1.49028571,1.59783333 C1.50171429,1.53483333 1.51952381,1.44133333 1.54304762,1.3185 L1.78361905,0.101833333 L1.96142857,0.101833333 L1.96142857,1.85233333 L1.83419048,1.85233333 L1.83419048,0.386833333 L1.54266667,1.85233333 L1.424,1.85233333 L1.13428571,0.3625 L1.13428571,1.85233333 L1.00714286,1.85233333 Z" id="Shape"></path>
                    </g>
                </g>
            </g>
        </g>
    </g>
</svg>