<?xml version="1.0" encoding="UTF-8"?>
<svg width="40px" height="39px" viewBox="0 0 40 39" version="1.1" xmlns="http://www.w3.org/2000/svg" xmlns:xlink="http://www.w3.org/1999/xlink">
    <!-- Generator: Sketch 49.3 (51167) - http://www.bohemiancoding.com/sketch -->
    <title>piggy-bank</title>
    <desc>Created with Sketch.</desc>
    <defs>
        <linearGradient x1="0%" y1="0%" x2="100%" y2="100%" id="linearGradient-1">
            <stop stop-color="#1D3EDE" offset="0%"></stop>
            <stop stop-color="#01E4F8" offset="100%"></stop>
        </linearGradient>
    </defs>
    <g id="Design" stroke="none" stroke-width="1" fill="none" fill-rule="evenodd">
        <g id="Основной-концепт" transform="translate(-559.000000, -1074.000000)" fill="url(#linearGradient-1)" fill-rule="nonzero">
            <g id="Бизнесу" transform="translate(404.000000, 994.000000)">
                <g id="Group-7" transform="translate(0.000000, 56.000000)">
                    <g id="Group-5">
                        <g id="registration" transform="translate(155.000000, 24.000000)">
                            <g id="piggy-bank">
                                <path d="M32.3883348,21 C32.0505274,21 31.7766695,21.3145785 31.7766695,21.7026152 C31.7766695,22.1945684 31.4282724,22.5947696 31,22.5947696 C30.5718097,22.5947696 30.2233305,22.1945684 30.2233305,21.7026152 C30.2233305,21.3144842 29.9494726,21 29.6116652,21 C29.2738579,21 29,21.3145785 29,21.7026152 C29,22.969416 29.8972622,24 31,24 C32.1027378,24 33,22.9693217 33,21.7026152 C33,21.3143899 32.7261421,21 32.3883348,21 Z" id="Shape"></path>
                                <path d="M38.4721875,20.7304258 L36.83375,20.2082691 C36.6239063,20.1413479 36.4585156,19.9747055 36.3914063,19.7624385 C36.0460938,18.6701689 35.525,17.6447429 34.8425781,16.71453 C34.5315625,16.2905401 34.1857031,15.8856705 33.8078906,15.5002322 C34.0496094,14.4452706 34.1810156,13.2513368 34.1639844,12.2198482 C34.1396094,10.7442389 33.8432031,9.87877091 33.2578906,9.57377797 C32.9426563,9.40931185 31.9832813,8.9096955 26.7905469,11.2745566 C26.6675781,11.3305186 26.5527344,11.3994607 26.4464063,11.4784293 C26.0963281,11.3848484 25.7385156,11.2982627 25.3785156,11.2205377 C25.3351563,11.211133 25.2904688,11.2028164 25.2467969,11.1936449 C25.6675781,10.2791324 25.9132813,9.28588454 25.9594531,8.26053622 C25.9738281,7.94093099 25.7251563,7.67029251 25.4039063,7.65606883 C25.0835156,7.64021293 24.810625,7.88908841 24.7963281,8.20869364 C24.7204688,9.89462681 24.0175,11.4809165 22.8170313,12.6753167 C22.0997656,13.38891 21.2599219,13.9072581 20.3648438,14.2337032 C18.8125781,14.0170058 17.2314844,14.0170058 15.6792188,14.2337032 C14.7840625,13.9072581 13.9442969,13.38891 13.2270313,12.6753167 C11.94625,11.4010929 11.2408594,9.70692091 11.2408594,7.90486658 C11.2408594,6.10273453 11.94625,4.40864023 13.2270313,3.13441643 C14.5078125,1.86011491 16.2107813,1.15833581 18.0220313,1.15833581 C19.8332813,1.15833581 21.53625,1.86011491 22.8170313,3.13441643 C23.3317188,3.64646879 23.7570313,4.23080541 24.0811719,4.87102631 C24.2257813,5.15674344 24.5758594,5.27177645 24.8629688,5.12782974 C25.1501563,4.98403847 25.2657031,4.63575271 25.1210938,4.3501133 C24.7411719,3.59936744 24.2429688,2.91484328 23.6403906,2.31527257 C22.1396875,0.822252869 20.144375,0 18.0221094,0 C15.8998438,0 13.9045313,0.822252869 12.4038281,2.31527257 C10.903125,3.80836999 10.0766406,5.79338899 10.0766406,7.90478886 C10.0766406,10.0161887 10.903125,12.0012855 12.4038281,13.4943051 C12.8367188,13.9249794 13.3076563,14.2953391 13.8057813,14.6056173 C13.8059375,14.6056173 13.8060938,14.6055396 13.80625,14.6055396 C13.4442969,14.6991205 13.0850781,14.8042047 12.7298438,14.9223467 C12.4249219,15.0237779 12.2603906,15.3518551 12.3623438,15.6552936 C12.4642188,15.9586543 12.7941406,16.1223431 13.0989844,16.0209897 C16.2736719,14.9650955 19.7705469,14.9650955 22.9452344,16.0209897 C23.0064844,16.0413537 23.0686719,16.0509916 23.1298438,16.0509916 C23.3733594,16.0509916 23.6003906,15.8977179 23.681875,15.6552936 C23.7838281,15.3519329 23.6192969,15.0237779 23.314375,14.9223467 C22.9591406,14.8042047 22.5999219,14.6990428 22.2379688,14.6055396 C22.238125,14.6055396 22.2382813,14.6056173 22.2384375,14.6056173 C22.7366406,14.2953391 23.2075,13.9249794 23.6403906,13.4943051 C24.0233594,13.1132972 24.3614063,12.6972352 24.6549219,12.2550576 C24.8153906,12.2860699 24.9746875,12.3185589 25.1316406,12.352447 C25.3407031,12.3976053 25.5488281,12.4461057 25.7550781,12.4970156 C25.7485938,12.5221985 25.7419531,12.5473036 25.7365625,12.5728752 C25.4526563,13.9132429 25.4710938,15.0987048 25.7913281,16.0961498 C26.0791406,16.9927078 26.5985938,17.719048 27.3350781,18.2551174 C28.203125,18.8868663 29.2510938,19.1597588 30.2003906,19.1597588 C30.9148438,19.1597588 31.5735156,19.005086 32.0572656,18.7325044 C32.6044531,18.4241693 33.0628906,17.7744659 33.4257813,16.7990171 C33.5935156,16.9937959 33.7525,17.193316 33.9023438,17.3975774 C34.5099219,18.2256596 34.97375,19.1383067 35.2809375,20.1100247 C35.4613281,20.6807595 35.9091406,21.1298546 36.47875,21.3114979 L38.1171875,21.8336545 C38.5471094,21.9706837 38.8359375,22.3643609 38.8359375,22.813456 L38.8359375,25.5163432 C38.8359375,25.9654383 38.5471094,26.3591154 38.1171875,26.4961446 L35.4774219,27.3373624 C35.0550781,27.4720599 34.6976563,27.7608083 34.4710156,28.1505215 C33.4339063,29.9336886 31.8033594,31.4092979 29.624375,32.5363883 C29.3726563,32.6667331 29.1982813,32.8998304 29.1457813,33.1760651 L28.3003125,37.6299413 C28.2769531,37.7526691 28.1689063,37.8416642 28.0433594,37.8416642 L25.294375,37.8416642 C25.1688281,37.8416642 25.0607813,37.7525913 25.0374219,37.6299413 L24.5691406,35.168468 C24.4769531,34.6841634 24.0203906,34.3624596 23.5289844,34.4365316 C22.3448438,34.6146773 21.1246875,34.704916 19.9025781,34.704916 C18.9933594,34.704916 18.0957813,34.6544725 17.2346094,34.5549067 C16.7584375,34.5004215 16.3148438,34.8233689 16.2258594,35.291118 L15.7808594,37.6299413 C15.7575,37.7526691 15.6494531,37.8416642 15.5239063,37.8416642 L12.7749219,37.8416642 C12.649375,37.8416642 12.5413281,37.7525913 12.5176563,37.6280759 L11.7035938,33.4214429 C11.6511719,33.1504158 11.4800781,32.9199612 11.2339063,32.78915 C7.51953125,30.8164115 5.55625,27.5205603 5.55625,23.2581208 C5.55625,21.1045162 6.02984375,19.2001758 6.96382813,17.597797 C7.83539063,16.1024455 9.10835938,14.8660738 10.7473438,13.9228808 C11.025625,13.7626896 11.1207031,13.408419 10.9597656,13.1314848 C10.7988281,12.8546283 10.4427344,12.7601924 10.164375,12.9201505 C6.98632812,14.7491754 5.06953125,17.5709041 4.54179688,21.1548043 L4.54179688,21.1547266 C4.48578125,21.1496745 4.4296875,21.1448555 4.37382813,21.1391039 C4.38398437,20.7524219 4.31367187,20.3622424 4.16054688,19.9835661 C3.8228125,19.1483332 3.1290625,18.545498 2.39304688,18.4477977 C1.81304688,18.370539 1.26109375,18.6155283 0.878046875,19.1190309 C0.32265625,19.8491796 0.413203125,20.4269873 0.586875,20.7831233 C0.880078125,21.3841708 1.63375,21.8093266 2.88445313,22.0766229 C2.85007813,22.1278437 2.81226563,22.1792976 2.77085938,22.2309848 C2.031875,23.1530366 1.16125,23.3569093 0.5959375,23.3761073 C0.265,23.387222 0,23.6515648 0,23.9810411 L0,23.9838392 C0,24.3088074 0.257734375,24.5738497 0.5840625,24.5886952 C0.625859375,24.5906383 0.66953125,24.5916487 0.715,24.5916487 C1.4303125,24.5916487 2.57835937,24.3291714 3.68132813,22.9532056 C3.85546875,22.7360419 3.99734375,22.5069086 4.10640625,22.2701582 C4.21625,22.2825165 4.32179688,22.2930871 4.42289063,22.3024141 C4.42289063,22.3021809 4.42289063,22.3020254 4.42296875,22.3017923 C4.403125,22.6156458 4.39210938,22.9340852 4.39210938,23.2581208 C4.39210938,25.6697723 4.97,27.8200347 6.10960937,29.6494483 C7.16039063,31.3360809 8.66484375,32.7170989 10.5826562,33.7556605 L11.3740625,37.8452395 C11.5013281,38.5142964 12.0904687,38.9999223 12.7749219,38.9999223 L15.5239063,38.9999223 C16.2083594,38.9999223 16.7975,38.5142964 16.9247656,37.8452395 L17.3271094,35.7304975 C18.1627344,35.8185599 19.0278906,35.8631741 19.9025,35.8631741 C21.1025,35.8631741 22.3010938,35.7800083 23.4692188,35.6158531 L23.8933594,37.845395 C24.0207031,38.5144519 24.6098438,39 25.2942188,39 L28.0432031,39 C28.7276563,39 29.3167969,38.5143741 29.4441406,37.8450841 L30.2673438,33.5087281 C32.5929688,32.2852588 34.3459375,30.678061 35.4785938,28.7305832 C35.5602344,28.5902118 35.6859375,28.4872262 35.8325,28.4405135 L38.4721875,27.5992957 C39.3860156,27.3079046 40,26.470884 40,25.5161877 L40,22.8133005 C40,21.858682 39.3860156,21.0216614 38.4721875,20.7304258 Z M32.9123438,13.8473321 C32.6882813,15.7536157 32.0872656,17.3842864 31.4833594,17.7245665 C30.7969531,18.1114039 29.2121875,18.1860976 28.0223438,17.3201633 C26.8310937,16.4532185 26.4346094,14.8942103 26.875625,12.8116464 C26.875625,12.8115687 26.875625,12.8115687 26.875625,12.8115687 C26.9199219,12.6024107 27.0692969,12.4214669 27.2751562,12.3277305 C30.1895313,11.0004982 31.8697656,10.5664041 32.4939844,10.5664041 C32.5882031,10.5664041 32.6583594,10.5762751 32.7050781,10.5944628 C32.8925781,10.7932834 33.1385156,11.9234827 32.9123438,13.8473321 Z M1.63445313,20.2773667 C1.57421875,20.1537839 1.71640625,19.9365425 1.8065625,19.8179341 C1.94945313,19.6301505 2.08109375,19.5917544 2.18054688,19.5917544 C2.2015625,19.5917544 2.22117188,19.5934643 2.23914063,19.5958738 C2.50679688,19.6313941 2.88179688,19.9244174 3.08046875,20.4157172 C3.12726562,20.531372 3.18804687,20.7229642 3.20226562,20.9618908 C2.39640625,20.7957925 1.7703125,20.5563217 1.63445313,20.2773667 Z" id="Shape"></path>
                                <path d="M18.973296,6.36583328 L18.973296,4.38545951 C19.7527976,4.43425585 20.0423872,4.74641872 20.3095965,4.74641872 C20.6436928,4.74641872 20.7995931,4.37572995 20.7995931,4.19034843 C20.7995931,3.71226314 19.7305019,3.5074225 18.973296,3.48788911 L18.973296,3.22437403 C18.973296,3.10732224 18.8062055,3 18.6391997,3 C18.4498135,3 18.3162089,3.10732224 18.3162089,3.22437403 L18.3162089,3.50727396 C17.2583079,3.60486664 16.2004069,4.09268148 16.2004069,5.32194814 C16.2004069,6.57074819 17.3140047,6.92197785 18.3162089,7.23414073 L18.3162089,9.52682592 C17.1803154,9.44876663 16.879705,8.76584071 16.5122075,8.76584071 C16.2338081,8.76584071 16,9.08780741 16,9.32198528 C16,9.79999629 16.9354018,10.4536593 18.3162089,10.4731927 L18.3162089,10.775626 C18.3162089,10.8926778 18.4498983,11 18.6391997,11 C18.8062903,11 18.973296,10.8926778 18.973296,10.775626 L18.973296,10.4439297 C20.1759919,10.2975407 21,9.63414815 21,8.43414444 C21,7.10735937 19.942099,6.67799616 18.973296,6.36583328 Z M18.3830112,6.18052603 C17.7928111,5.98541495 17.3140047,5.7805743 17.3140047,5.22450401 C17.3140047,4.71715578 17.75941,4.47324835 18.3830112,4.4049929 L18.3830112,6.18052603 Z M18.906409,9.50729253 L18.906409,7.4487852 C19.4520176,7.65362584 19.8863174,7.92679621 19.8863174,8.5413924 C19.8863174,9.09761124 19.5077145,9.40977412 18.906409,9.50729253 Z" id="Shape"></path>
                            </g>
                        </g>
                    </g>
                </g>
            </g>
        </g>
    </g>
</svg>