<?xml version="1.0" encoding="UTF-8"?>
<svg width="34px" height="34px" viewBox="0 0 34 34" version="1.1" xmlns="http://www.w3.org/2000/svg" xmlns:xlink="http://www.w3.org/1999/xlink">
    <!-- Generator: Sketch 49.3 (51167) - http://www.bohemiancoding.com/sketch -->
    <title>planning</title>
    <desc>Created with Sketch.</desc>
    <defs>
        <linearGradient x1="0%" y1="0%" x2="100%" y2="100%" id="linearGradient-1">
            <stop stop-color="#1D3EDE" offset="0%"></stop>
            <stop stop-color="#01E4F8" offset="100%"></stop>
        </linearGradient>
    </defs>
    <g id="Design" stroke="none" stroke-width="1" fill="none" fill-rule="evenodd">
        <g id="Основной-концепт" transform="translate(-1322.000000, -1077.000000)" fill="url(#linearGradient-1)" fill-rule="nonzero">
            <g id="Бизнесу" transform="translate(404.000000, 994.000000)">
                <g id="Group-8-Copy" transform="translate(760.000000, 56.000000)">
                    <g id="Group-5-Copy">
                        <g id="registration" transform="translate(158.000000, 27.000000)">
                            <g id="piggy-bank">
                                <g id="company">
                                    <g id="planning">
                                        <path d="M28.4423077,0 L0.557692308,0 C0.249706731,0 0,0.253725 0,0.566666667 L0,33.4333333 C0,33.746275 0.249706731,34 0.557692308,34 L28.4423077,34 C28.7502933,34 29,33.746275 29,33.4333333 L29,0.566666667 C29,0.253654167 28.7502933,0 28.4423077,0 Z M27.8846154,32.8666667 L1.11538462,32.8666667 L1.11538462,1.13333333 L27.8846154,1.13333333 L27.8846154,32.8666667 Z" id="Shape"></path>
                                        <path d="M33.9526664,3.19035648 L32.6193332,0.357077381 C32.4830833,0.0663121143 32.0953333,-0.0754226724 31.75325,0.0403876106 C31.5831667,0.0979740082 31.4484168,0.212509316 31.3806668,0.357077381 L30.0473336,3.19035648 C30.0160003,3.25722186 29.999917,3.3286205 30.0000003,3.40058578 L30.0000003,32.3000325 C30.0000003,33.2389104 30.8954168,34 32,34 C33.1045832,34 33.9999997,33.2389104 33.9999997,32.3000325 L33.9999997,3.40058578 C34.000083,3.3286205 33.9839997,3.25729269 33.9526664,3.19035648 Z M32.6666666,32.3001034 C32.6666666,32.6130391 32.3681666,32.8667592 32,32.8667592 C31.6318334,32.8667592 31.3333334,32.6130391 31.3333334,32.3001034 L31.3333334,31.1667917 L32.6666666,31.1667917 L32.6666666,32.3001034 Z M32.6666666,30.0334801 L31.3333334,30.0334801 L31.3333334,5.66727989 L32.6666666,5.66727989 L32.6666666,30.0334801 Z M32.6666666,4.53396825 L31.3333334,4.53396825 L31.3333334,3.50945453 L32,2.09281499 L32.6666666,3.50945453 L32.6666666,4.53396825 Z" id="Shape"></path>
                                        <path d="M8.00006112,6 C4.68639033,6 2.00012224,8.68627256 2.00012224,11.9999489 C1.97925882,15.2927617 4.63170907,17.9790343 7.92458462,17.9998977 C7.94974345,18.0000341 7.97490229,18.0000341 8.00006112,17.9998977 C11.3137319,17.9998977 14,15.3136252 14,11.9999489 C14,8.68627256 11.3137319,6 8.00006112,6 Z M8.54551011,7.12089954 C9.46759163,7.22092141 10.3416736,7.58303196 11.0643935,8.16434519 L8.54551011,10.6832328 L8.54551011,7.12089954 Z M4.1649411,15.0639455 C2.47275379,12.9456908 2.81822754,9.85667168 4.93647869,8.16448155 C5.66056222,7.58603194 6.53355333,7.22439866 7.45454395,7.12137681 L7.45454395,11.9998807 C7.45563485,12.0632892 7.46783927,12.1260842 7.49054358,12.1853336 C7.49327083,12.1924245 7.49054358,12.2000608 7.49599807,12.2071516 C7.50145256,12.2142425 7.51017975,12.2267878 7.51563424,12.2376968 C7.53663402,12.2809237 7.5634292,12.3211507 7.59526979,12.3571504 C7.60290607,12.3658776 7.60617877,12.377332 7.6143605,12.3855138 L11.0643254,15.8354844 C8.94607421,17.5276745 5.8571284,17.1822683 4.1649411,15.0639455 Z M11.8362039,15.0642182 L8.77132599,11.9998807 L11.8362039,8.93554316 C13.2667802,10.7280279 13.2667802,13.2718017 11.8362039,15.0642182 Z" id="Shape"></path>
                                        <rect id="Rectangle-path" x="25" y="9" width="2" height="2"></rect>
                                        <rect id="Rectangle-path" x="18" y="9" width="6" height="2"></rect>
                                        <rect id="Rectangle-path" x="24" y="14" width="4" height="2"></rect>
                                        <rect id="Rectangle-path" x="18" y="14" width="5" height="2"></rect>
                                        <rect id="Rectangle-path" x="22" y="11" width="6" height="2"></rect>
                                        <rect id="Rectangle-path" x="18" y="11" width="2" height="2"></rect>
                                        <path d="M17.7099269,9.28336379 C17.3114551,8.9055454 16.6884994,8.9055454 16.2900277,9.28336379 C16.1072907,9.47572367 16.003673,9.73032132 16.0000483,9.99608663 C15.9974235,10.2631067 16.101916,10.519963 16.2900277,10.7088095 C16.3895206,10.7971469 16.5005127,10.8714307 16.6200043,10.9296532 C16.7408707,10.9777118 16.8699865,11.0015528 16.9999773,10.9999216 C17.5466884,11.0054427 17.9944066,10.5651356 17.9999063,10.0162888 C18.0000312,10.0095129 18.0000312,10.0028625 17.9999063,9.99608663 C17.9961565,9.73019584 17.8926639,9.47572367 17.7099269,9.28336379 Z" id="Shape"></path>
                                        <path d="M17.9197358,11.6095355 C17.8689946,11.4880046 17.798007,11.3760056 17.7097723,11.2784298 C17.3088421,10.9071901 16.6909495,10.9071901 16.2900193,11.2784298 C16.19966,11.3743752 16.1284224,11.4867505 16.0800558,11.6095355 C15.9205836,11.9829073 16.0038191,12.4159785 16.2900193,12.7031876 C16.6788267,13.0966265 17.3119665,13.0992603 17.7040233,12.7090823 C17.8947401,12.5193237 18.0013466,12.2604592 17.9997219,11.9908087 C18.0030963,11.859119 17.9757261,11.728558 17.9197358,11.6095355 Z" id="Shape"></path>
                                        <path d="M17.000015,14 C16.4477834,14 16.0000483,14.4464506 16.0000483,14.9970979 C15.9974234,15.2623259 16.1019199,15.5174583 16.2900386,15.7050373 C16.6789007,16.0960243 17.3121296,16.0986417 17.7042415,15.7108953 C17.8949852,15.5223192 18.0016066,15.2650679 17.9999817,14.9970979 C17.9999817,14.4463259 17.5522466,14 17.000015,14 Z" id="Shape"></path>
                                        <rect id="Rectangle-path" x="18" y="3" width="2" height="2"></rect>
                                        <rect id="Rectangle-path" x="9" y="3" width="8" height="2"></rect>
                                        <path d="M22.4324324,30.9090909 L3.13513514,30.9090909 L3.13513514,20.5454545 C3.13513514,20.2442273 2.88100676,20 2.56756757,20 C2.25412838,20 2,20.2442273 2,20.5454545 L2,31.4545455 C2,31.7557727 2.25412838,32 2.56756757,32 L22.4324324,32 C22.7458716,32 23,31.7557727 23,31.4545455 C23,31.1533182 22.7458716,30.9090909 22.4324324,30.9090909 Z" id="Shape"></path>
                                        <path d="M21.7912434,26.2223385 C21.7848033,26.2169442 21.7782924,26.2116956 21.7715692,26.2065928 L20.6958553,25.3446605 L21.8955594,23.4913311 C22.069089,23.2233623 21.9988845,22.8612107 21.7387316,22.6824677 C21.4785787,22.5037246 21.1269901,22.5760383 20.9534605,22.8440071 L19.7996157,24.6261892 L16.6766483,22.1237862 C16.478349,21.9640692 16.2015649,21.9583833 15.9972501,22.10979 L12.3115144,24.8209696 L10.3514504,23.811494 C10.1921457,23.7294851 10.0046034,23.7294851 9.8452987,23.811494 L7.69387084,24.9195261 L5.9427218,23.3157955 C5.70917864,23.1016245 5.35122068,23.1230562 5.1432965,23.3636158 C4.93537232,23.6041754 4.95617889,23.9728876 5.18972204,24.1870586 L6.60513511,25.4811234 L5.31484456,26.1453595 C5.03636204,26.2907158 4.92468595,26.6408393 5.0651657,26.92798 C5.20472542,27.2162142 5.54470764,27.3332136 5.82453481,27.189461 C5.82467635,27.1893881 5.82481789,27.1893152 5.82495943,27.1892423 L7.52345511,26.3144802 L10.2937016,28.8512904 C10.4452215,28.9897215 10.6570381,29.0341886 10.8491097,28.9679254 L14.0802146,27.8598933 L17.8735216,28.976673 C17.9236272,28.9913982 17.9754314,28.999271 18.0275186,29 C18.2167593,29 18.3935444,28.9026827 18.498568,28.7404872 L20.0657134,26.317396 L21.0763183,27.1268426 C21.3187786,27.3301519 21.6753919,27.2925372 21.872842,27.0427926 C22.0702921,26.793048 22.0337745,26.4256478 21.7912434,26.2223385 Z M17.7858368,27.7420191 L14.2189959,26.6923045 C14.1092306,26.6602299 13.9926005,26.6630729 13.8843922,26.700469 L10.7976594,27.7595144 L8.61056312,25.7568922 L10.1012762,24.9865183 L12.1128612,26.0257357 C12.3004742,26.1220325 12.5243926,26.1035896 12.6948791,25.9779154 L16.3149395,23.3151394 L19.1701108,25.602934 L17.7858368,27.7420191 Z" id="Shape"></path>
                                        <path d="M27.3333333,23 L24.6666667,23 C24.2985,23 24,23.44775 24,24 C24,24.55225 24.2985,25 24.6666667,25 L27.3333333,25 C27.7015,25 28,24.55225 28,24 C28,23.44775 27.7015,23 27.3333333,23 Z" id="Shape"></path>
                                        <path d="M27.3333333,26 L24.6666667,26 C24.2985,26 24,26.44775 24,27 C24,27.55225 24.2985,28 24.6666667,28 L27.3333333,28 C27.7015,28 28,27.55225 28,27 C28,26.44775 27.7015,26 27.3333333,26 Z" id="Shape"></path>
                                    </g>
                                </g>
                            </g>
                        </g>
                    </g>
                </g>
            </g>
        </g>
    </g>
</svg>