<?xml version="1.0" encoding="UTF-8"?>
<svg width="38px" height="38px" viewBox="0 0 38 38" version="1.1" xmlns="http://www.w3.org/2000/svg" xmlns:xlink="http://www.w3.org/1999/xlink">
    <!-- Generator: Sketch 49.3 (51167) - http://www.bohemiancoding.com/sketch -->
    <title>Shape Copy 2</title>
    <desc>Created with Sketch.</desc>
    <defs>
        <linearGradient x1="0%" y1="0%" x2="100%" y2="100%" id="linearGradient-1">
            <stop stop-color="#1D3EDE" offset="0%"></stop>
            <stop stop-color="#01E4F8" offset="100%"></stop>
        </linearGradient>
    </defs>
    <g id="Design" stroke="none" stroke-width="1" fill="none" fill-rule="evenodd">
        <g id="Основной-концепт" transform="translate(-940.000000, -1220.000000)" fill="url(#linearGradient-1)" fill-rule="nonzero">
            <g id="Бизнесу" transform="translate(404.000000, 994.000000)">
                <g id="Group-6" transform="translate(2.000000, 201.000000)">
                    <path d="M572,53.5 L572,35.7666667 C571.997942,34.0186667 570.581333,32.6020583 568.833333,32.6 L561.866667,32.6 L561.866667,25 L560.6,25 L560.6,39.5666667 C560.6,39.916425 560.883575,40.2 561.233333,40.2 L563.380333,40.2 L553,46.4282 L542.619667,40.2 L544.766667,40.2 C545.116425,40.2 545.4,39.916425 545.4,39.5666667 L545.4,25 L544.133333,25 L544.133333,32.6 L537.166667,32.6 C535.418667,32.6020583 534.002058,34.0186667 534,35.7666667 L534,53.5 C534.002058,55.248 535.418667,56.6646083 537.166667,56.6666667 L547.541933,56.6666667 L546.275267,59.2 L534.633333,59.2 C534.283575,59.2 534,59.483575 534,59.8333333 C534,63 537.337033,63 538.433333,63 L567.566667,63 C568.662967,63 572,63 572,59.8333333 C572,59.483575 571.716425,59.2 571.366667,59.2 L559.724733,59.2 L558.458067,56.6666667 L568.833333,56.6666667 C570.581333,56.6646083 571.997942,55.248 572,53.5 Z M544.133333,38.9333333 L540.333333,38.9333333 C539.983575,38.9334125 539.700079,39.2170667 539.700237,39.5669042 C539.700317,39.789125 539.816771,39.9949583 540.007246,40.1095125 L552.673913,47.7095125 C552.8746,47.8300833 553.125558,47.8300833 553.326246,47.7095125 L565.992913,40.1095125 C566.292638,39.92925 566.389538,39.5401458 566.209354,39.2403417 C566.094879,39.0499458 565.888967,38.9334125 565.666746,38.9333333 L561.866746,38.9333333 L561.866746,36.4 L568.200079,36.4 L568.200079,51.6 L537.8,51.6 L537.8,36.4 L544.133333,36.4 L544.133333,38.9333333 Z M570.6567,60.4666667 C570.435667,61.2463 569.671233,61.7333333 567.566667,61.7333333 L538.433333,61.7333333 C536.328767,61.7333333 535.564333,61.2463 535.3433,60.4666667 L570.6567,60.4666667 Z M547.6914,59.2 L548.958067,56.6666667 L557.041933,56.6666667 L558.3086,59.2 L547.6914,59.2 Z M537.166667,55.4 C536.117313,55.4 535.266667,54.5493542 535.266667,53.5 L535.266667,35.7666667 C535.266667,34.7173125 536.117313,33.8666667 537.166667,33.8666667 L544.133333,33.8666667 L544.133333,35.1333333 L537.166667,35.1333333 C536.816908,35.1333333 536.533333,35.4169083 536.533333,35.7666667 L536.533333,52.2333333 C536.533333,52.5830917 536.816908,52.8666667 537.166667,52.8666667 L568.833333,52.8666667 C569.183092,52.8666667 569.466667,52.5830917 569.466667,52.2333333 L569.466667,35.7666667 C569.466667,35.4169083 569.183092,35.1333333 568.833333,35.1333333 L561.866667,35.1333333 L561.866667,33.8666667 L568.833333,33.8666667 C569.882687,33.8666667 570.733333,34.7173125 570.733333,35.7666667 L570.733333,53.5 C570.733333,54.5493542 569.882687,55.4 568.833333,55.4 L537.166667,55.4 Z" id="Shape-Copy-2"></path>
                </g>
            </g>
        </g>
    </g>
</svg>