<?xml version="1.0" encoding="UTF-8"?>
<svg width="38px" height="39px" viewBox="0 0 38 39" version="1.1" xmlns="http://www.w3.org/2000/svg" xmlns:xlink="http://www.w3.org/1999/xlink">
    <!-- Generator: Sketch 49.3 (51167) - http://www.bohemiancoding.com/sketch -->
    <title>rich</title>
    <desc>Created with Sketch.</desc>
    <defs>
        <linearGradient x1="0%" y1="0%" x2="100%" y2="100%" id="linearGradient-1">
            <stop stop-color="#1D3EDE" offset="0%"></stop>
            <stop stop-color="#01E4F8" offset="100%"></stop>
        </linearGradient>
    </defs>
    <g id="Design" stroke="none" stroke-width="1" fill="none" fill-rule="evenodd">
        <g id="Основной-концепт" transform="translate(-562.000000, -1626.000000)" fill="url(#linearGradient-1)" fill-rule="nonzero">
            <g id="Частным-лицам" transform="translate(404.000000, 1400.000000)">
                <g id="Group-6-Copy" transform="translate(2.000000, 201.000000)">
                    <g id="rich" transform="translate(156.000000, 25.000000)">
                        <path d="M10.5699722,6.68658893 C10.8270679,7.47196875 11.5200263,8 12.294472,8 L16.9885228,8 C17.7629685,8 18.4559269,7.47196875 18.7130227,6.68658893 C18.9581165,5.93587783 19.7281404,4.2564451 20.3257143,3.7230802 C20.8493812,3.25438579 21.0951066,2.52834282 20.9662429,1.82830139 C20.8399059,1.13959396 20.384461,0.59556176 19.7483543,0.37354862 C17.8526678,-0.289823976 16.1711225,-0.0664774239 14.8856437,1.01825344 C14.6550787,1.21293163 14.345553,1.21293163 14.114988,1.01825344 C12.8295092,-0.0658107178 11.1492272,-0.28915727 9.25227737,0.374215326 C8.61617064,0.596228466 8.16009412,1.13959396 8.03375713,1.82896809 C7.9048934,2.52900953 8.15061884,3.2550525 8.67428566,3.7237469 C9.35082022,4.32778266 10.3867835,6.12655578 10.5699722,6.68658893 Z M9.27438635,2.08298313 C9.297127,1.95830908 9.37671931,1.73562924 9.6496072,1.64029026 C10.2370742,1.43494477 10.784745,1.33293874 11.2913564,1.33293874 C12.0708556,1.33293874 12.7518119,1.57561977 13.3260135,2.06031512 C14.0177085,2.64501639 14.9841865,2.64368298 15.6746181,2.06031512 C16.6227772,1.26026777 17.8589847,1.11892607 19.3510245,1.64029026 C19.6239124,1.73562924 19.702873,1.95897579 19.7256137,2.08298313 C19.7679365,2.31433015 19.6870809,2.54701059 19.5089457,2.70635336 C18.5437311,3.56907108 17.6808495,5.75720059 17.5191382,6.25256324 C17.4382825,6.50057792 17.224773,6.66725445 16.9891545,6.66725445 L12.2951037,6.66725445 C12.0588536,6.66725445 11.8459757,6.50057792 11.7651201,6.25256324 C11.5017074,5.44718224 10.3299319,3.45639775 9.49168597,2.70635336 C9.31291913,2.54634389 9.23143177,2.31366345 9.27438635,2.08298313 Z" id="Shape"></path>
                        <path d="M20.3153237,8.64798315 C20.3153237,8.29029645 20.037106,8 19.6943021,8 C19.5787921,8 19.4763236,8.0421189 19.3837913,8.09914142 C19.2912591,8.04147092 19.1887906,8 19.0732805,8 L11.6210216,8 C11.2782177,8 11,8.29029645 11,8.64798315 C11,9.00566985 11.2782177,9.2959663 11.6210216,9.2959663 L19.0732805,9.2959663 L19.0732805,9.94394946 L12.2420432,9.94394946 C11.8992392,9.94394946 11.6210216,10.2342459 11.6210216,10.5919326 C11.6210216,10.9496193 11.8992392,11.2399158 12.2420432,11.2399158 L19.6477255,11.2399158 C20.2041608,11.7233112 20.8897687,12 21.6219531,12 C22.4510169,12 23.23102,11.6624008 23.8178854,11.0500567 C24.0607049,10.7966953 24.0607049,10.3871699 23.8178854,10.1338085 C23.575066,9.88044711 23.1825803,9.88044711 22.9397609,10.1338085 C22.2380065,10.8660295 21.0220463,10.8679734 20.3153237,10.1428803 L20.3153237,8.64798315 Z" id="Shape"></path>
                        <path d="M14.3333333,17 C10.0593333,17 5,22.081875 5,26.375 C5,26.72 5.29866667,27 5.66666667,27 C6.03466667,27 6.33333333,26.72 6.33333333,26.375 C6.33333333,22.80625 10.8193333,18.25 14.3333333,18.25 C14.7013333,18.25 15,17.97 15,17.625 C15,17.28 14.7013333,17 14.3333333,17 Z" id="Shape"></path>
                        <path d="M31.5664673,20.5607668 C30.90317,20.5607668 30.1131322,20.600278 29.3166609,20.6931294 C28.450064,19.0692178 27.3074686,17.6724958 25.8650705,16.5418161 L21.2316403,13.3183581 C20.4654065,12.7164703 19.2578324,12 17.856609,12 L12.8532506,12 C11.6154389,12 10.3982145,12.4313309 9.44347823,13.1998244 L4.88982375,16.5958147 C0.143806651,20.4152338 -1.35842324,27.1084364 1.31856973,32.5109388 C2.29260659,34.4766225 3.91964702,36.8519061 6.14436264,37.0059999 C6.31871138,37.0178532 6.49499017,37.0244384 6.67255568,37.0244384 L19.191567,37.0244384 C20.1360096,38.2268969 21.5816244,39 23.2028747,39 C25.0673125,39 26.6988564,37.9760006 27.6021244,36.4521841 C28.7517967,36.817663 30.1613837,37.0244384 31.5664673,37.0244384 C34.6603532,37.0244384 38,36.0175605 38,34.3903563 L38,30.7684935 L37.9491751,30.7684935 C37.980056,30.6618131 38,30.5524987 38,30.4392332 L38,26.48811 L38,22.8662472 C38,21.0460964 33.9558813,20.5607668 31.5664673,20.5607668 Z M36.6643986,22.859662 C36.6508882,22.8734909 36.6399512,22.8873198 36.6212939,22.9024658 C36.5962032,22.9228799 36.5659656,22.9446111 36.5318678,22.9670008 C36.4894065,22.9946587 36.4379383,23.0236336 36.3819665,23.0526085 C36.3362884,23.0763152 36.2886803,23.1006805 36.2339953,23.1250457 C36.1664432,23.1559962 36.0866674,23.1869467 36.0049615,23.2185556 C35.9393395,23.2435794 35.8730741,23.2686032 35.7984451,23.2942855 C35.7045155,23.3258945 35.5964322,23.3575035 35.4877055,23.3884539 C35.4027828,23.4128192 35.3191469,23.437843 35.2252173,23.4615497 C35.1029802,23.4925002 34.9653026,23.5208166 34.8282684,23.5491329 C34.7246885,23.5708641 34.6262554,23.5932538 34.514312,23.613668 C34.3599072,23.6413258 34.1874885,23.6650326 34.0169999,23.6887393 C33.9005529,23.7052023 33.7918262,23.7236409 33.6676591,23.7381283 C33.4650028,23.7618351 33.2417592,23.7782981 33.019159,23.7947611 C32.9059288,23.8033219 32.8029923,23.8151752 32.6846153,23.822419 C32.3333444,23.8421746 31.9614862,23.854028 31.5645372,23.854028 C31.1675882,23.854028 30.79573,23.8421746 30.4444592,23.822419 C30.3260821,23.8158338 30.2231456,23.8039804 30.1099154,23.7947611 C29.8873152,23.7776396 29.6640716,23.7611766 29.4614153,23.7381283 C29.3372482,23.7236409 29.2285215,23.7052023 29.1120745,23.6887393 C28.9415859,23.6650326 28.7691672,23.6413258 28.6147624,23.613668 C28.502819,23.5932538 28.4043859,23.5708641 28.300806,23.5491329 C28.1637718,23.520158 28.0260942,23.4918417 27.9038571,23.4615497 C27.8099275,23.437843 27.7269349,23.4134777 27.6413689,23.3884539 C27.5326422,23.3575035 27.4252022,23.3258945 27.3306293,23.2942855 C27.2560003,23.2692617 27.1897349,23.2435794 27.1241129,23.2185556 C27.042407,23.1869467 26.9626312,23.1559962 26.8950791,23.1250457 C26.8403941,23.1006805 26.792786,23.0763152 26.7471079,23.0526085 C26.6911361,23.022975 26.6396679,22.9940001 26.5972066,22.9670008 C26.5631088,22.9446111 26.5328712,22.9235385 26.5077805,22.9024658 C26.4904099,22.8886369 26.4807596,22.876125 26.4678926,22.8629546 C26.4756128,22.8563694 26.4807596,22.8497842 26.4897666,22.8425404 C26.5135706,22.8221263 26.5476684,22.7990781 26.5811227,22.7766884 C26.6332344,22.7417868 26.698213,22.7049096 26.7747721,22.6653984 C26.81659,22.6436672 26.8577646,22.6225946 26.9066595,22.6008634 C26.9574844,22.5778152 27.0160296,22.554767 27.0745747,22.5310602 C27.1440569,22.5034024 27.2199725,22.4757445 27.3003917,22.4480866 C27.3582935,22.428331 27.4142652,22.4079169 27.4786006,22.3881613 C27.6227117,22.3433819 27.7803332,22.299261 27.9533953,22.2564572 C28.0331711,22.2367015 28.125814,22.2189215 28.2126666,22.2004829 C28.3175332,22.1774347 28.4249732,22.155045 28.5388468,22.1339723 C28.6643006,22.1109241 28.7974748,22.0891929 28.9351524,22.0681203 C29.6602115,21.9561718 30.5280951,21.8784664 31.5632505,21.8784664 C34.6037381,21.8778079 36.3041208,22.5198654 36.6643986,22.859662 Z M26.8539045,28.2773103 C26.9118063,28.3023341 26.9716382,28.3260408 27.0321134,28.3504061 C27.1440569,28.3951855 27.2585737,28.4373308 27.3769507,28.4788176 C27.439356,28.5005488 27.5004746,28.5216214 27.5641665,28.5420356 C27.6999141,28.5854979 27.8395217,28.6256677 27.9823462,28.6645204 C28.0325277,28.6783493 28.0807792,28.6934953 28.1316041,28.7060072 C28.3265402,28.7560547 28.5259797,28.8021512 28.730566,28.8429794 C28.7730273,28.8515402 28.8174187,28.8581254 28.8605234,28.8666862 C29.0245785,28.8982952 29.1905636,28.9272701 29.3591222,28.9529524 C29.4311777,28.9641472 29.5038767,28.9733665 29.5765756,28.9832443 C29.7213301,29.0029999 29.8667279,29.02078 30.0140558,29.0365845 C30.0912582,29.0444867 30.1684606,29.052389 30.245663,29.0596327 C30.3974944,29.0734616 30.5499691,29.083998 30.7030872,29.0932172 C30.7712826,29.0971684 30.8394781,29.1024365 30.9076735,29.1057291 C31.1277003,29.1156069 31.3470838,29.1221921 31.5658239,29.1221921 C31.784564,29.1221921 32.0039475,29.1156069 32.2239743,29.1057291 C32.2934565,29.1024365 32.3629386,29.0971684 32.4324208,29.0932172 C32.5836088,29.083998 32.7347968,29.0734616 32.8853415,29.0602912 C32.9644739,29.0530475 33.0436064,29.0451452 33.1220955,29.0365845 C33.26685,29.0214385 33.4103177,29.0036584 33.5531422,28.9839028 C33.6277711,28.974025 33.7024001,28.9641472 33.7763858,28.9529524 C33.9423709,28.9279286 34.1057826,28.8989537 34.2672643,28.8680032 C34.3129424,28.8594425 34.3592638,28.8521987 34.4049419,28.8429794 C34.6082415,28.8014926 34.8070377,28.7560547 35.000687,28.7066657 C35.0547287,28.6928368 35.106197,28.6770323 35.1595953,28.6625448 C35.299203,28.6243506 35.4362372,28.5848394 35.568768,28.5420356 C35.6337467,28.5209629 35.6961519,28.4992317 35.7592005,28.4775005 C35.8769342,28.4366723 35.9914511,28.3938684 36.1027512,28.3497476 C36.162583,28.3260408 36.2224149,28.3016756 36.2803167,28.2766518 C36.3961203,28.2266042 36.5061337,28.1739226 36.612287,28.1199239 C36.6457414,28.1028024 36.6836992,28.0883149 36.7158669,28.0711934 L36.719727,30.3918197 C36.568539,30.7665179 34.9061141,31.6015219 32.2831628,31.7352016 C32.0476955,31.7437623 31.8199484,31.7556157 31.5658239,31.7556157 C30.1485166,31.7556157 28.7485799,31.5330358 27.6793268,31.1418746 C27.6754667,31.1352894 27.6709632,31.1287042 27.6671031,31.122119 C27.5911874,30.9864637 27.5107682,30.8541011 27.4239155,30.7263481 C27.4110485,30.707251 27.3962513,30.689471 27.3827409,30.6703739 C27.3023218,30.5551328 27.2193292,30.4425258 27.1299031,30.3345284 C27.1028822,30.3022609 27.0739313,30.2726275 27.0462672,30.24036 C26.9671347,30.1488256 26.8873589,30.0586083 26.8024363,29.9730007 C26.7586882,29.9288798 26.7117235,29.8893686 26.6666887,29.8465647 C26.5920597,29.7767615 26.5187175,29.7069584 26.4408717,29.6417648 C26.4331515,29.6351796 26.426718,29.6279359 26.4189977,29.6220092 C26.4189977,29.3645277 26.4196411,28.7922734 26.4202844,28.0725104 C26.4530954,28.0902905 26.49234,28.1054365 26.5257944,28.122558 C26.6319476,28.1758981 26.740031,28.2279213 26.8539045,28.2773103 Z M18.3545644,35.7067389 L6.67255568,35.7067389 C6.52394107,35.7067389 6.37596982,35.7014707 6.22992862,35.6915929 C4.96573944,35.6040097 3.62885134,34.2626034 2.46566862,31.9149777 C0.0653175518,27.0709007 1.41957619,21.063218 5.6657078,17.6454965 L10.2193623,14.2495061 C10.9669388,13.6482769 11.9023744,13.317041 12.8526072,13.317041 L17.8559656,13.317041 C18.8962679,13.317041 19.8394238,13.8860028 20.4782736,14.3858199 L25.1117039,17.6086193 C26.2626629,18.5121095 27.2219026,19.6171069 27.9714092,20.9018804 C27.1569239,21.0737543 26.3694595,21.3358455 25.8283994,21.7204215 C25.8136023,21.7309578 25.7988052,21.7414941 25.784008,21.7520304 C25.7023022,21.8126143 25.6276732,21.8764908 25.5594777,21.9436599 C25.5305268,21.9719763 25.5047927,22.0009512 25.4784152,22.0305846 C25.4275903,22.0878759 25.3786955,22.1458257 25.3388076,22.2077266 C25.3053532,22.2584327 25.2809058,22.3130899 25.2551716,22.3670886 C25.2326543,22.4158191 25.2056334,22.4625741 25.1895496,22.5139387 C25.1541652,22.6252287 25.1322912,22.7417868 25.1322912,22.8655886 L25.1322912,26.4874515 L25.1322912,28.8508817 C24.9154811,28.7606644 24.6909508,28.6882271 24.4606303,28.6289603 C24.4303927,28.621058 24.4001551,28.6124973 24.3699175,28.6052535 C24.1447439,28.5512548 23.9150668,28.5104266 23.6802428,28.4880369 C23.6538653,28.4854028 23.6274879,28.4860613 23.6011104,28.4840858 C23.469223,28.4735494 23.3366922,28.4636716 23.2022313,28.4636716 C23.1314625,28.4636716 23.063267,28.4715739 22.9931415,28.4742079 C22.9384565,28.4761835 22.8837715,28.4788176 22.8290864,28.4827687 C22.6000527,28.4998902 22.3735923,28.5268896 22.1535655,28.5736445 C22.149062,28.5743031 22.1452019,28.5743031 22.1406984,28.5756201 C22.1233279,28.5795712 22.1072441,28.586815 22.0898735,28.5907661 C21.888504,28.636204 21.6922812,28.6961294 21.5005619,28.7659325 C21.4310798,28.7909563 21.3615976,28.8159801 21.2934022,28.843638 C21.1023263,28.9220019 20.9157538,29.0089266 20.7362582,29.1096803 C20.6687062,29.1472159 20.6056575,29.1906783 20.5400355,29.2315065 C20.4145816,29.3098705 20.2923445,29.3921856 20.1746108,29.4810858 C20.1051287,29.5331089 20.0350032,29.583815 19.9680944,29.6391308 C19.8169064,29.7642497 19.6727953,29.8979293 19.5364044,30.0401698 C19.4765725,30.1020707 19.4218875,30.1679227 19.3652724,30.2331163 C19.2687694,30.3437477 19.1767699,30.4589888 19.0899172,30.5775225 C19.0429524,30.6420575 18.9934142,30.7032999 18.9490229,30.7698105 C18.8357927,30.9390503 18.7347862,31.1168508 18.6415,31.299261 C18.6054722,31.3703812 18.5726612,31.4428185 18.5392068,31.5159142 C18.4658645,31.6772518 18.4002425,31.8418819 18.3429841,32.0117802 C18.3262569,32.0611692 18.3056696,32.1079242 18.2908725,32.1579718 C18.2246071,32.3739665 18.1763556,32.5978635 18.1377544,32.8243945 C18.1326075,32.8533694 18.1223139,32.8810273 18.1178104,32.9100022 C18.1126636,32.9455623 18.1126636,32.9837565 18.1081601,33.0193166 C18.0875728,33.1740689 18.0747058,33.3307968 18.0676289,33.4895003 C18.0650555,33.546133 18.0599086,33.6021073 18.0592653,33.6593986 C18.0592653,33.6837638 18.0554052,33.7074705 18.0554052,33.7318358 C18.0554052,33.8365406 18.0650555,33.9386113 18.0708456,34.0413405 C18.0959364,34.6103022 18.1866492,35.181898 18.3545644,35.7067389 Z M23.2028747,37.6823004 C21.0894592,37.6823004 19.3697759,35.934587 19.3453285,33.7779322 C19.3453285,33.7265676 19.3466152,33.6758616 19.3485452,33.624497 C19.3504753,33.5520597 19.3536921,33.480281 19.3594822,33.4085022 C19.3639857,33.3479183 19.3710626,33.287993 19.3781395,33.2280676 C19.3858597,33.1668252 19.3948667,33.1062413 19.4051603,33.0463159 C19.4341112,32.8751006 19.4714257,32.7058608 19.5222506,32.5418892 C19.5273974,32.5241092 19.5351177,32.5076462 19.5409079,32.4905246 C19.5949495,32.325236 19.6599282,32.1638984 19.7352006,32.0078291 C19.7422774,31.9926831 19.7493543,31.9775371 19.7564312,31.9630497 C20.1031986,31.266335 20.6506923,30.6776176 21.3139895,30.289749 C21.3165629,30.288432 21.318493,30.2864564 21.3210664,30.2851394 C21.471611,30.1975562 21.6298759,30.1238019 21.7907143,30.0579498 C21.8325322,30.0408283 21.8749935,30.0256823 21.9168115,30.0105363 C22.0596359,29.9585132 22.2050338,29.9130753 22.3549351,29.8794907 C22.3755224,29.8748811 22.394823,29.8676374 22.4154103,29.8636863 C22.6013394,29.8248335 22.7879118,29.8037609 22.9738409,29.792566 C23.0092254,29.7905905 23.0446098,29.7879564 23.0806376,29.7872979 C23.2704268,29.7813712 23.4595727,29.7866394 23.6461451,29.809029 C23.6570821,29.8103461 23.6673758,29.8123217 23.6776694,29.8142972 C23.8745355,29.839321 24.0694716,29.8794907 24.2611908,29.9361235 C24.2637642,29.936782 24.266981,29.9374406 24.2695544,29.9380991 C24.4670639,29.9967074 24.6607132,30.0724373 24.8498591,30.1639716 C25.0235645,30.2482622 25.1927664,30.3424307 25.3510313,30.4510866 L25.3767654,30.4695251 C25.3992828,30.4853296 25.4198701,30.5031097 25.4417441,30.5189142 C25.5485407,30.5972781 25.6508339,30.6802517 25.749267,30.769152 C25.773071,30.7902246 25.7962317,30.8126143 25.8193925,30.8343455 C25.9178255,30.9278554 26.0117551,31.0253165 26.0998945,31.1280457 C26.1089014,31.138582 26.1179084,31.1478013 26.1269153,31.1583376 C26.3315017,31.4019902 26.5077805,31.6713251 26.6493182,31.9604156 C26.6821292,32.0262677 26.7149402,32.0927782 26.7438911,32.1606058 C26.792786,32.2758469 26.8352473,32.3924051 26.8732051,32.5102802 C26.8757785,32.518841 26.8796387,32.5274018 26.8822121,32.5359625 C26.9195266,32.6551548 26.9497642,32.7763225 26.9754983,32.8981488 C26.9774284,32.9080266 26.9806451,32.9172459 26.9825752,32.9264652 C27.0070226,33.047633 27.0250365,33.1701178 27.0385469,33.2932611 C27.0398336,33.304456 27.042407,33.3143338 27.0436937,33.3255286 C27.0572042,33.4598668 27.064281,33.5948635 27.064281,33.7311773 C27.064281,33.8707836 27.0565608,34.0097315 27.042407,34.1480208 C27.040477,34.1684349 27.0359735,34.187532 27.0334001,34.2079461 C27.0192463,34.3271384 27.0018758,34.4456721 26.976785,34.5622302 C26.9742116,34.5754006 26.9697081,34.5879125 26.9671347,34.6010829 C26.9394705,34.7262018 26.9066595,34.8500037 26.8667716,34.9724885 C26.8648415,34.9777566 26.8629115,34.9830248 26.8609814,34.988293 C26.8185201,35.116046 26.7696252,35.2418234 26.7142969,35.3662837 C26.1037546,36.7300798 24.7610763,37.6823004 23.2028747,37.6823004 Z M31.5664673,35.7067389 C30.3453827,35.7067389 29.1300884,35.5401332 28.1316041,35.2418234 C28.1322475,35.2405063 28.1322475,35.2391893 28.1322475,35.2378722 C28.1946528,35.0245116 28.2403308,34.8045657 28.2763586,34.5806688 C28.2847222,34.5273286 28.2930858,34.474647 28.3001627,34.4206483 C28.3291136,34.1941172 28.3497009,33.9656106 28.3497009,33.7311773 C28.3497009,33.5606205 28.3406939,33.3913807 28.3246101,33.223458 C28.3188199,33.1628741 28.3085263,33.1042657 28.300806,33.0443404 C28.289869,32.9593912 28.2821488,32.8737836 28.2673517,32.7901515 C29.2433186,32.9745372 30.3769071,33.0726568 31.5664673,33.0726568 C33.1040816,33.0726568 35.3268671,32.871808 36.7158669,32.2435794 L36.719727,34.3429429 C36.5550285,34.7505671 34.6024514,35.7067389 31.5664673,35.7067389 Z M31.5664673,27.8044926 C28.5407768,27.8044926 26.5927031,26.8555645 26.4228578,26.4914026 C26.4235012,25.7406893 26.4241445,24.978781 26.4241445,24.3439672 C26.4402284,24.3512109 26.459529,24.3571376 26.4762562,24.3643814 C26.6300176,24.4315504 26.7908559,24.4947684 26.9619879,24.5527182 C26.9709948,24.5560108 26.9800018,24.5593034 26.9896521,24.5619375 C27.1646442,24.6198873 27.3492865,24.6719104 27.5377891,24.7199824 C27.599551,24.7357869 27.6632429,24.7502744 27.7262916,24.7647618 C27.8639692,24.7970293 28.0029335,24.8279798 28.1451145,24.8556377 C28.2139533,24.8694666 28.2821488,24.882637 28.3516309,24.8951489 C28.5079658,24.9234653 28.664944,24.9484891 28.8238523,24.9721958 C28.8740338,24.9794395 28.923572,24.9880003 28.9737536,24.995244 C29.1815567,25.0235604 29.3893598,25.0485842 29.5958762,25.0689983 C29.6479878,25.0742665 29.6988127,25.0782176 29.7509243,25.0828272 C29.9098326,25.0973147 30.0668108,25.1104851 30.2225023,25.1210214 C30.2900544,25.1256311 30.3556764,25.1295822 30.4219418,25.1335333 C30.5660529,25.1420941 30.7063039,25.1486793 30.8452682,25.1539475 C30.9038134,25.155923 30.9623585,25.1585571 31.019617,25.1605327 C31.2081195,25.1658008 31.3921185,25.1690934 31.5658239,25.1690934 C31.7388859,25.1690934 31.922885,25.1658008 32.1113875,25.1605327 C32.1699326,25.1585571 32.2291211,25.155923 32.2883096,25.1539475 C32.4259872,25.1486793 32.5655949,25.1420941 32.7090627,25.1335333 C32.7766148,25.1295822 32.8428802,25.1256311 32.9110756,25.1210214 C33.0667671,25.1104851 33.2243886,25.0973147 33.3832969,25.0821687 C33.4347652,25.0775591 33.4849467,25.073608 33.536415,25.0683398 C33.7435747,25.0472671 33.9513778,25.0229019 34.159181,24.993927 C34.2100059,24.9866833 34.2601874,24.9781225 34.3110123,24.9708788 C34.4692772,24.9478305 34.6262554,24.9221482 34.7819469,24.8938319 C34.8520724,24.88132 34.9202679,24.867491 34.9891067,24.8543206 C35.1312878,24.8260042 35.2708954,24.7957123 35.4092164,24.7627863 C35.472265,24.7476403 35.5353136,24.7338114 35.5970755,24.7180069 C35.7894382,24.6686178 35.9772973,24.6159362 36.1555062,24.5566693 C36.1645131,24.5533767 36.1722333,24.5500841 36.1812403,24.5474501 C36.3491555,24.4908173 36.5080638,24.4282578 36.6592518,24.3624058 C36.6772657,24.3545035 36.6984963,24.3479183 36.7165102,24.3400161 L36.7203703,26.4393795 C36.5550285,26.8483208 34.6024514,27.8044926 31.5664673,27.8044926 Z" id="Shape"></path>
                    </g>
                </g>
            </g>
        </g>
    </g>
</svg>