<?xml version="1.0" encoding="UTF-8"?>
<svg width="32px" height="35px" viewBox="0 0 32 35" version="1.1" xmlns="http://www.w3.org/2000/svg" xmlns:xlink="http://www.w3.org/1999/xlink">
    <!-- Generator: Sketch 49.3 (51167) - http://www.bohemiancoding.com/sketch -->
    <title>ship</title>
    <desc>Created with Sketch.</desc>
    <defs>
        <linearGradient x1="0%" y1="0%" x2="100%" y2="100%" id="linearGradient-1">
            <stop stop-color="#1D3EDE" offset="0%"></stop>
            <stop stop-color="#01E4F8" offset="100%"></stop>
        </linearGradient>
    </defs>
    <g id="Design" stroke="none" stroke-width="1" fill="none" fill-rule="evenodd">
        <g id="Основной-концепт" transform="translate(-942.000000, -1482.000000)" fill="url(#linearGradient-1)" fill-rule="nonzero">
            <g id="Частным-лицам" transform="translate(404.000000, 1400.000000)">
                <g id="Group-8-Copy-2" transform="translate(380.000000, 56.000000)">
                    <g id="Group-5-Copy">
                        <g id="registration" transform="translate(158.000000, 26.000000)">
                            <g id="piggy-bank">
                                <g id="company">
                                    <g id="ship">
                                        <path d="M15.5,28 C15.2239,28 15,28.2212394 15,28.4941688 L15,28.5058312 C15,28.7787606 15.2239,29 15.5,29 C15.77615,29 16,28.7787606 16,28.5058312 L16,28.4941688 C16,28.2212394 15.77615,28 15.5,28 Z" id="Shape"></path>
                                        <path d="M31.3082416,33.6325471 C30.2956136,33.6325471 29.3520991,33.0942885 28.8458889,32.2278385 C28.7223285,32.0163358 28.493887,31.8860436 28.2467662,31.8860436 C27.9995762,31.8860436 27.7711348,32.0163358 27.6476436,32.2278385 C27.1811442,33.026203 26.343341,33.5447742 25.4224494,33.621678 C26.7394123,31.102308 27.9312929,27.9091919 28.8887822,24.978506 C28.9019269,24.9463773 28.912927,24.9137017 28.920883,24.8804109 C29.2387086,23.9044498 29.5301756,22.9591135 29.7913405,22.0787866 C29.7969443,22.0625856 29.8015103,22.0461111 29.805938,22.0297049 C30.1124868,20.9950918 30.3768341,20.0518747 30.5923384,19.25727 C30.6562633,19.0213632 30.5879799,18.7696654 30.4132935,18.5969223 C28.5964159,16.8017473 26.3948822,15.0368553 24.0753919,13.4771769 L23.9113596,8.22467837 C23.8848626,7.38440986 23.2095005,6.72624965 22.3739112,6.72624965 L19.4817952,6.72624965 L19.1841018,3.54584836 C19.1831332,3.53033088 19.1818188,3.51495011 19.1797433,3.49970606 L18.9663145,1.21884051 C18.9012827,0.523971539 18.3449841,0 17.672251,0 L14.3278182,0 C13.6551542,0 13.0988557,0.523971539 13.0337547,1.21884051 L12.8201875,3.50018457 C12.8182504,3.51495011 12.8169359,3.52992072 12.8159674,3.5449597 L12.5182048,6.72618129 L9.62622718,6.72618129 C8.79036111,6.72618129 8.11506822,7.38447822 8.08877877,8.22481509 L7.92467727,13.4771085 C5.60518698,15.0368553 3.4035841,16.8016789 1.58677572,18.5969223 C1.41208925,18.7695971 1.34373669,19.0213632 1.40773074,19.25727 C1.62233565,20.0485251 1.88523013,20.986752 2.18998017,22.0154862 C2.19523806,22.0374978 2.20181043,22.0593043 2.20935135,22.0809058 C2.47030871,22.9601389 2.76136056,23.9041763 3.07863269,24.8786335 C3.08672707,24.9128814 3.09793468,24.9464456 3.11156368,24.979463 C4.06926059,27.910354 5.26100276,31.1027865 6.57768899,33.6216096 C5.65679731,33.5447742 4.81906331,33.026203 4.35263316,32.2278385 C4.22914194,32.0163358 4.00076966,31.8860436 3.75351048,31.8859753 C3.50638967,31.8859753 3.27794821,32.0162675 3.15438781,32.2277701 C2.64810839,33.0942885 1.70445559,33.6325471 0.69182757,33.6325471 C0.309731203,33.6325471 0,33.9385902 0,34.3161368 C0,34.6936834 0.309800386,34.9997266 0.69182757,34.9997266 C1.85914823,34.9997266 2.96475787,34.5185477 3.7534413,33.7017947 C4.54198637,34.5186161 5.64766519,34.9998633 6.81512421,34.9998633 C7.16159146,34.9998633 7.50238572,34.9570022 7.83114218,34.8760652 C7.84726177,34.8726472 7.86324298,34.8686824 7.87915502,34.864034 C8.63988861,34.6674336 9.33344575,34.2641156 9.87680713,33.7013846 C10.6653522,34.5183427 11.7709618,34.9998633 12.9384209,34.9998633 C14.1058107,34.9998633 15.2113512,34.5186845 15.9998962,33.7019314 C16.7885797,34.5187528 17.8942585,35 19.0615791,35 C20.2290382,35 21.3345094,34.5184794 22.123262,33.7015213 C22.6629567,34.260561 23.3509793,34.662375 24.1057631,34.8603426 C24.1301155,34.8679988 24.1546753,34.8739461 24.1793736,34.8787995 C24.5049476,34.9580276 24.8421444,34.9999316 25.1848066,34.9999316 C26.3522656,34.9999316 27.4579444,34.5186845 28.2466279,33.7018631 C29.0351729,34.5186161 30.1407826,34.9997949 31.3081724,34.9997949 C31.6902688,34.9997949 32,34.6937518 32,34.3162052 C32.0000692,33.9385902 31.6904072,33.6325471 31.3082416,33.6325471 Z M23.070374,14.4536165 C25.2789643,15.9207368 27.3872397,17.5847993 29.1511924,19.2866643 C29.0355188,19.7079607 28.9075307,20.1651455 28.7684042,20.6500157 C25.7287906,18.1654404 20.3647747,14.4175229 16.6918622,12.7559214 L16.691793,10.935932 C18.730678,11.8199503 20.8839913,13.0099433 22.9535243,14.3758923 C22.9896377,14.4055601 23.0286568,14.4316049 23.070374,14.4536165 Z M14.4094538,1.36717949 L17.5907537,1.36717949 L17.7346539,2.90491462 L14.2654153,2.90491462 L14.4094538,1.36717949 Z M14.1374964,4.27209411 L17.862642,4.27209411 L18.0923287,6.72618129 L13.9078096,6.72618129 L14.1374964,4.27209411 Z M9.47181127,8.26699258 C9.47444021,8.18168058 9.53296882,8.09336078 9.62622718,8.09336078 L13.148944,8.09336078 L18.8509868,8.09336078 L18.8524397,8.09336078 L22.3739112,8.09336078 C22.4671695,8.09336078 22.525629,8.18174894 22.5283271,8.26699258 L22.6624033,12.5617819 C20.5186372,11.2244752 18.3215312,10.0860932 16.2714385,9.27932063 C16.2693631,9.27843196 16.2672184,9.27768001 16.2651429,9.27679135 C16.2618913,9.27549253 16.2586397,9.27412535 16.2554573,9.27289489 C16.2495768,9.27063904 16.2435579,9.26899842 16.2377465,9.2668793 C16.2243251,9.26202581 16.2109036,9.25717232 16.1971363,9.25313914 C16.1888343,9.25067822 16.1804632,9.24890089 16.1720921,9.24678176 C16.1590857,9.24350053 16.1462178,9.24001422 16.1329347,9.23748494 C16.1218654,9.23536581 16.1107962,9.23406699 16.0996578,9.23249473 C16.0889344,9.23099083 16.0782111,9.22900842 16.0673494,9.22798304 C16.022519,9.22360806 15.9772735,9.22360806 15.932443,9.22798304 C15.9215122,9.22900842 15.9109272,9.23099083 15.9001347,9.23249473 C15.8890654,9.23406699 15.8778578,9.23536581 15.8667886,9.23748494 C15.8535747,9.24008258 15.8406375,9.24350053 15.8277003,9.24678176 C15.8193292,9.24890089 15.8108889,9.25067822 15.8026562,9.25313914 C15.7888888,9.25717232 15.7754674,9.26202581 15.7621151,9.2668793 C15.7561654,9.26899842 15.7502156,9.27063904 15.7444043,9.27289489 C15.7411527,9.27419371 15.7379011,9.27556089 15.7346495,9.27679135 C15.7326432,9.27761165 15.7304294,9.27843196 15.7284231,9.27932063 C13.6783304,10.0860249 11.4813628,11.2244069 9.33759672,12.5617135 L9.47181127,8.26699258 Z M2.84887675,19.2866643 C4.61220686,17.5853462 6.71972119,15.9218305 8.92748133,14.4551204 C8.97016709,14.4329037 9.00994718,14.4060386 9.04682159,14.3757556 C11.1162854,13.0098066 13.2693912,11.8198819 15.308207,10.935932 L15.308207,12.755853 C11.6352944,14.4174546 6.27141693,18.1653037 3.23166495,20.649879 C3.09260761,20.1651455 2.96468869,19.7080291 2.84887675,19.2866643 Z M23.9924418,33.3708689 C23.4681748,33.1308606 23.0197322,32.736566 22.7224539,32.2279069 C22.7212778,32.2257877 22.7197558,32.2238737 22.7183721,32.2217546 C22.7109004,32.2091081 22.7025985,32.1969403 22.6941582,32.1847724 C22.6895921,32.1780048 22.6850952,32.1711006 22.6802524,32.1645381 C22.672158,32.1537374 22.663441,32.1433468 22.654724,32.1329563 C22.6485667,32.1257102 22.6426862,32.1181907 22.6362522,32.1112181 C22.6287113,32.1029467 22.6204785,32.0951537 22.6124533,32.0872241 C22.6040822,32.0788843 22.5957803,32.0704078 22.5869941,32.0625465 C22.5803525,32.0565993 22.5731575,32.0510622 22.5661701,32.0453884 C22.5553084,32.0364334 22.5444467,32.0274784 22.5331007,32.0192069 C22.5267359,32.0146269 22.5200252,32.010457 22.513522,32.0060136 C22.5009307,31.9975371 22.4884086,31.9891973 22.4752639,31.9816095 C22.4732576,31.980379 22.4713205,31.9788751 22.4691758,31.977713 C22.4637796,31.9746369 22.4580374,31.9722443 22.4525028,31.9693049 C22.4402574,31.9627424 22.4280813,31.956385 22.4155592,31.9506429 C22.4057352,31.9461312 22.3959113,31.9421664 22.385949,31.9380648 C22.3755716,31.9338266 22.3650558,31.9296567 22.3544708,31.9258969 C22.3427098,31.9217954 22.3308103,31.9181724 22.3189109,31.914686 C22.3097096,31.91202 22.3005775,31.909354 22.2913761,31.9070982 C22.2785082,31.9039537 22.2656402,31.9012877 22.252703,31.8988268 C22.2437092,31.8971178 22.2347155,31.8954772 22.2256525,31.8941784 C22.2129229,31.8923327 22.2002625,31.8908971 22.1875328,31.889735 C22.1776397,31.888778 22.1678157,31.8880944 22.1577842,31.8875475 C22.1461615,31.8870007 22.1345388,31.8867956 22.1228469,31.8867956 C22.1116393,31.8867956 22.1004317,31.8870007 22.0891549,31.8875475 C22.0789159,31.888026 22.0685385,31.8888464 22.0582994,31.8898034 C22.0459157,31.8909655 22.0336704,31.8923327 22.0213558,31.8941784 C22.0118778,31.8955455 22.0026073,31.8972545 21.9931293,31.8990318 C21.980538,31.9014244 21.9681543,31.904022 21.9556322,31.9070982 C21.9459466,31.9094908 21.9365378,31.9122251 21.9270597,31.9149595 C21.915437,31.9183774 21.9038835,31.9218637 21.8923992,31.9258969 C21.8815375,31.929725 21.870745,31.9340316 21.8600217,31.9383383 C21.8504053,31.9423031 21.8407197,31.9461995 21.8311724,31.9505745 C21.818512,31.956385 21.8061975,31.9628791 21.7938138,31.9694416 C21.7884175,31.972381 21.7827445,31.9747052 21.7773483,31.9777814 C21.7752036,31.9790118 21.7733357,31.9804474 21.7712602,31.9816778 C21.7581155,31.9892657 21.7455934,31.9976738 21.7330021,32.0061504 C21.7264298,32.0105253 21.7197882,32.0146952 21.7134234,32.0192753 C21.7020774,32.0275467 21.6912157,32.0365017 21.6802849,32.0455251 C21.6732974,32.0511989 21.6661024,32.056736 21.6594608,32.0626832 C21.6506746,32.0705445 21.6423727,32.079021 21.6340016,32.0873608 C21.6259764,32.0952905 21.6178128,32.1030834 21.6102027,32.1113548 C21.6037687,32.1183274 21.5979574,32.1257786 21.5918001,32.133093 C21.5830831,32.1434835 21.5742969,32.1538741 21.5662025,32.1646748 C21.5613597,32.1712373 21.5568628,32.1781415 21.5522968,32.1849091 C21.5439256,32.197077 21.5356237,32.2092449 21.5280828,32.2218913 C21.5266991,32.2240104 21.5252463,32.2259245 21.524001,32.2280436 C21.0177216,33.0945619 20.0740688,33.6328205 19.0614408,33.6328205 C18.0488128,33.6328205 17.1052983,33.0944936 16.5988805,32.2279069 C16.4753893,32.0164042 16.2469478,31.886112 15.9997579,31.886112 C15.752637,31.886112 15.5241956,32.0164042 15.4006352,32.2279069 C14.8944941,33.0943569 13.9509105,33.6326154 12.9382825,33.6326154 C11.9256545,33.6326154 10.98214,33.0943569 10.4757914,32.2278385 C10.4745461,32.2257877 10.4730933,32.223942 10.471848,32.2219596 C10.4641687,32.2090398 10.4557284,32.1965301 10.4471498,32.1840204 C10.4425837,32.1775263 10.4383636,32.1708955 10.4337975,32.1646065 C10.4255648,32.1535323 10.4165018,32.1429367 10.4075772,32.1322727 C10.4016275,32.1253 10.3959545,32.1179856 10.3897281,32.1112181 C10.3820488,32.1027416 10.3736777,32.0948119 10.3654449,32.0867456 C10.357143,32.0786109 10.3490486,32.0702711 10.34047,32.0626149 C10.3336209,32.0565309 10.3263567,32.0509255 10.3193,32.045115 C10.3085075,32.0362283 10.297715,32.0273416 10.2864382,32.0191386 C10.2800734,32.0145585 10.2733627,32.0103203 10.2667211,32.0058769 C10.2541299,31.9974004 10.2416078,31.989129 10.2286014,31.9814728 C10.2264568,31.9803107 10.2245888,31.9788068 10.2225134,31.9775763 C10.2171171,31.9745001 10.2114441,31.9721076 10.2059095,31.9691681 C10.193595,31.9626057 10.1813496,31.9561799 10.1687584,31.9503694 C10.1590728,31.9459261 10.1494564,31.9420296 10.1397016,31.9380648 C10.1290475,31.9336898 10.1183241,31.9294516 10.1075316,31.9256235 C10.0959781,31.9215903 10.0844246,31.918104 10.0728019,31.914686 C10.0632547,31.9118833 10.0537766,31.909149 10.0441602,31.9067564 C10.0317073,31.9037486 10.0193928,31.9010826 10.0069399,31.8987584 C9.99739267,31.8969811 9.98784545,31.8952037 9.97822905,31.8938366 C9.96612207,31.8920592 9.95401508,31.890692 9.94197728,31.8895983 C9.9314615,31.8885729 9.92080736,31.8877526 9.9102224,31.8872741 C9.8993607,31.8867272 9.88849901,31.8865221 9.87756814,31.8865221 C9.86553034,31.8865221 9.85342335,31.8867272 9.84138555,31.8873425 C9.83190752,31.887821 9.82263703,31.8885729 9.81322817,31.8893932 C9.80001427,31.8905553 9.78673118,31.8920592 9.77358645,31.8940416 C9.76507697,31.8953405 9.75663668,31.8968444 9.74819638,31.8984166 C9.73477493,31.9009459 9.72128429,31.9037486 9.70793202,31.9070298 C9.69928417,31.9092173 9.69077469,31.9116099 9.68226521,31.9141392 C9.66967395,31.9178306 9.65729024,31.9215903 9.64483734,31.9259653 C9.63480584,31.9295199 9.62505107,31.9334164 9.61522712,31.9373812 C9.60471134,31.9416195 9.59426475,31.9458577 9.58395652,31.9506429 C9.57191872,31.9561799 9.56022683,31.9623323 9.54846576,31.9685529 C9.54265441,31.9716974 9.53656633,31.9742267 9.53075498,31.9775079 C9.52847194,31.9788068 9.52646564,31.9803107 9.5242518,31.9816095 C9.51172972,31.9889239 9.49969192,31.9969903 9.48751575,32.0050566 C9.48045911,32.0097734 9.47333329,32.0142851 9.46641501,32.0192753 C9.4556225,32.0271366 9.44531427,32.0356814 9.43493686,32.0442263 C9.42746512,32.0503103 9.41971665,32.0562575 9.41259083,32.0626832 C9.4042889,32.070066 9.39647124,32.0781324 9.38844604,32.0859936 C9.38000575,32.0943334 9.3713579,32.1025365 9.36347107,32.1112865 C9.35738299,32.1179173 9.35177918,32.1250266 9.34596783,32.1319309 C9.33690489,32.1426632 9.32784195,32.1533272 9.31954002,32.1645381 C9.31483559,32.1708271 9.31054626,32.1775947 9.30604938,32.1840888 C9.2975399,32.1964617 9.28916879,32.2088347 9.2814895,32.2216178 C9.28024421,32.223737 9.27879137,32.2255827 9.27754608,32.2277018 C8.98026778,32.7362926 8.53182515,33.1305871 8.00776576,33.3705955 C6.70719911,30.9800821 5.5176016,27.8547782 4.55208705,24.9383109 L5.14304616,24.4265073 C5.56007982,24.0650934 6.00596269,23.6948612 6.46831105,23.3259961 C6.76558936,23.0888589 6.81208017,22.6584708 6.57208519,22.3647322 C6.3320902,22.0709937 5.89651557,22.0250565 5.59916808,22.2621938 C5.12222215,22.6426115 4.6618109,23.0250116 4.23094069,23.3984566 L4.09340537,23.517538 C3.93912782,23.0274041 3.79204528,22.5482761 3.65291875,22.085144 C6.41400259,19.7592983 11.6729299,16.0508239 15.3079995,14.2708246 L15.3080686,26.5374324 C15.3080686,26.914979 15.6177999,27.2210221 15.9998962,27.2210221 C16.3819926,27.2210221 16.6917238,26.914979 16.6917238,26.5374324 L16.6918622,14.2709613 C20.3270009,16.0509606 25.5859974,19.7595034 28.3470812,22.0853491 C28.2079547,22.5484812 28.0609414,23.0274725 27.9065946,23.517538 L27.7692668,23.3985934 C26.8770168,22.6255901 25.8995337,21.8470497 24.7812636,21.0184022 C24.4754758,20.791929 24.0418383,20.8531786 23.812705,21.1551885 C23.5834333,21.4571985 23.6454211,21.8856725 23.9510705,22.1122142 C25.0258246,22.9085279 26.0035845,23.687205 26.8571614,24.4267123 L27.4480513,24.9384476 C26.4826059,27.8545048 25.2930084,30.9800821 23.9924418,33.3708689 Z" id="Shape"></path>
                                        <path d="M7.83227343,21.1261932 C7.63758179,20.9531107 7.34516963,20.960006 7.1588212,21.1349872 C7.11550643,21.1755097 7.07948573,21.2235271 7.05285739,21.2767909 C6.92945776,21.5236234 7.02947641,21.8237696 7.27632563,21.9471359 C7.34806727,21.9830115 7.4242553,22 7.49934423,22 C7.64057935,22 7.77776776,21.9398908 7.87334003,21.8321639 C7.8734899,21.8319641 7.87368974,21.8318142 7.87383962,21.8316143 C8.05709057,21.6253044 8.03855564,21.3095187 7.83227343,21.1261932 Z" id="Shape"></path>
                                    </g>
                                </g>
                            </g>
                        </g>
                    </g>
                </g>
            </g>
        </g>
    </g>
</svg>