<?xml version="1.0" encoding="UTF-8"?>
<svg width="27px" height="27px" viewBox="0 0 27 27" version="1.1" xmlns="http://www.w3.org/2000/svg" xmlns:xlink="http://www.w3.org/1999/xlink">
    <!-- Generator: Sketch 50.2 (55047) - http://www.bohemiancoding.com/sketch -->
    <title>smartphone</title>
    <desc>Created with Sketch.</desc>
    <defs>
        <linearGradient x1="0%" y1="0%" x2="100%" y2="100%" id="linearGradient-1">
            <stop stop-color="#1D3EDE" offset="0%"></stop>
            <stop stop-color="#01E4F8" offset="100%"></stop>
        </linearGradient>
    </defs>
    <g id="Design" stroke="none" stroke-width="1" fill="none" fill-rule="evenodd">
        <g id="Контакты" transform="translate(-1298.000000, -1074.000000)" fill="url(#linearGradient-1)" fill-rule="nonzero">
            <g id="Group-5-Copy" transform="translate(1078.000000, 1030.000000)">
                <g id="Group-2" transform="translate(220.000000, 40.000000)">
                    <g id="smartphone" transform="translate(0.000000, 4.000000)">
                        <circle id="Oval" cx="13.5" cy="20.5" r="1"></circle>
                        <path d="M16.4085998,7 L10.5914002,7 C10.265316,7 10,7.25038531 10,7.55757629 L10,18.4424237 C10,18.7498789 10.265138,19 10.5914002,19 L16.4085998,19 C16.734684,19 17,18.7496147 17,18.4424237 L17,7.55757629 C16.9998221,7.2501211 16.734684,7 16.4085998,7 Z" id="Shape"></path>
                        <path d="M13.49964,0 C6.04408029,0 0,6.04449 0,13.49973 C0,20.95497 6.04408029,27 13.49964,27 C20.9551997,27 27,20.95533 27,13.49973 C27,6.04413 20.9551997,0 13.49964,0 Z M18.751895,20.16189 C18.751895,21.19311 17.9157894,22.0293 16.8844726,22.0293 L10.1151674,22.0293 C9.08394056,22.0293 8.24774498,21.1932 8.24774498,20.16189 L8.24774498,6.77907 C8.24774498,5.74785 9.08385056,4.91166 10.1151674,4.91166 L16.8844726,4.91166 C17.9156994,4.91166 18.751895,5.74776 18.751895,6.77907 L18.751895,20.16189 Z" id="Shape"></path>
                    </g>
                </g>
            </g>
        </g>
    </g>
</svg>