<?xml version="1.0" encoding="UTF-8"?>
<svg width="27px" height="27px" viewBox="0 0 27 27" version="1.1" xmlns="http://www.w3.org/2000/svg" xmlns:xlink="http://www.w3.org/1999/xlink">
    <!-- Generator: Sketch 50.2 (55047) - http://www.bohemiancoding.com/sketch -->
    <title>placeholder</title>
    <desc>Created with Sketch.</desc>
    <defs>
        <linearGradient x1="0%" y1="0%" x2="100%" y2="100%" id="linearGradient-1">
            <stop stop-color="#1D3EDE" offset="0%"></stop>
            <stop stop-color="#01E4F8" offset="100%"></stop>
        </linearGradient>
    </defs>
    <g id="Design" stroke="none" stroke-width="1" fill="none" fill-rule="evenodd">
        <g id="Контакты" transform="translate(-469.000000, -635.000000)" fill="url(#linearGradient-1)">
            <g id="placeholder" transform="translate(469.000000, 635.000000)">
                <path d="M16,10.4999353 C16,11.8808519 14.8808655,13 13.4998059,13 C12.1192639,13 11,11.8808519 11,10.4999353 C11,9.11953624 12.1192639,8 13.4998059,8 C14.8808655,8 16,9.11953624 16,10.4999353 Z" id="Fill-1"></path>
                <path d="M13.499775,0 C6.04438824,0 0,6.04438824 0,13.499775 C0,20.9552743 6.04438824,27 13.499775,27 C20.9552743,27 27,20.9552743 27,13.499775 C27,6.04438824 20.9552743,0 13.499775,0 Z M13.4716495,6.18107802 C13.4813247,6.18107802 13.4905498,6.18062801 13.500225,6.180178 C13.5094502,6.18062801 13.5186753,6.18107802 13.5283505,6.18107802 C15.8030259,6.21707862 17.6535692,8.09709745 17.6535692,10.3722229 C17.6535692,13.1539442 14.6810447,15.9708787 13.500225,16.980358 C13.4211362,16.9126319 13.3337222,16.8366931 13.2401207,16.7531042 C13.2383206,16.7518667 13.2369706,16.7505167 13.2356206,16.7491667 C11.9282363,15.5876973 9.34688078,12.9650536 9.34688078,10.3722229 C9.34643077,8.09709745 11.1974241,6.21707862 13.4716495,6.18107802 Z M13.558726,20.9029609 C11.069172,20.9029609 8.54834247,20.1889115 8.54834247,18.8239262 C8.54834247,17.8663103 9.78946316,17.2295497 11.3894648,16.9346822 C11.699295,17.2457499 11.9920249,17.5200295 12.2490917,17.7489708 C10.5062126,17.9435991 9.48222054,18.4951958 9.48222054,18.8239262 C9.48222054,19.227358 11.0295713,19.9690828 13.558726,19.9690828 C16.0877681,19.9690828 17.6355689,19.227358 17.6355689,18.8239262 C17.6355689,18.4885581 16.5681511,17.9230112 14.7619335,17.7388456 C15.0212504,17.5076543 15.3165678,17.2308997 15.6285355,16.9162319 C17.2764629,17.2031117 18.568997,17.8465099 18.568997,18.8239262 C18.568997,20.1889115 16.0486175,20.9029609 13.558726,20.9029609 Z" id="Fill-2"></path>
            </g>
        </g>
    </g>
</svg>