<?xml version="1.0" encoding="UTF-8"?>
<svg width="38px" height="38px" viewBox="0 0 38 38" version="1.1" xmlns="http://www.w3.org/2000/svg" xmlns:xlink="http://www.w3.org/1999/xlink">
    <!-- Generator: Sketch 49.3 (51167) - http://www.bohemiancoding.com/sketch -->
    <title>Group 24</title>
    <desc>Created with Sketch.</desc>
    <defs>
        <linearGradient x1="0%" y1="0%" x2="100%" y2="100%" id="linearGradient-1">
            <stop stop-color="#1D3EDE" offset="0%"></stop>
            <stop stop-color="#01E4F8" offset="100%"></stop>
        </linearGradient>
    </defs>
    <g id="Design" stroke="none" stroke-width="1" fill="none" fill-rule="evenodd">
        <g id="Основной-концепт" transform="translate(-562.000000, -1220.000000)" fill="url(#linearGradient-1)" fill-rule="nonzero">
            <g id="Бизнесу" transform="translate(404.000000, 994.000000)">
                <g id="Group-6" transform="translate(2.000000, 201.000000)">
                    <g id="Group-24" transform="translate(156.000000, 25.000000)">
                        <path d="M38,28.5 L38,10.7666667 C37.9979417,9.01866667 36.5813333,7.60205833 34.8333333,7.6 L27.8666667,7.6 L27.8666667,0 L26.6,0 L26.6,14.5666667 C26.6,14.916425 26.883575,15.2 27.2333333,15.2 L29.3803333,15.2 L19,21.4282 L8.61966667,15.2 L10.7666667,15.2 C11.116425,15.2 11.4,14.916425 11.4,14.5666667 L11.4,0 L10.1333333,0 L10.1333333,7.6 L3.16666667,7.6 C1.41866667,7.60205833 0.00205833333,9.01866667 0,10.7666667 L0,28.5 C0.00205833333,30.248 1.41866667,31.6646083 3.16666667,31.6666667 L13.5419333,31.6666667 L12.2752667,34.2 L0.633333333,34.2 C0.283575,34.2 0,34.483575 0,34.8333333 C0,38 3.33703333,38 4.43333333,38 L33.5666667,38 C34.6629667,38 38,38 38,34.8333333 C38,34.483575 37.716425,34.2 37.3666667,34.2 L25.7247333,34.2 L24.4580667,31.6666667 L34.8333333,31.6666667 C36.5813333,31.6646083 37.9979417,30.248 38,28.5 Z M10.1333333,13.9333333 L6.33333333,13.9333333 C5.983575,13.9334125 5.70007917,14.2170667 5.7002375,14.5669042 C5.70031667,14.789125 5.81677083,14.9949583 6.00724583,15.1095125 L18.6739125,22.7095125 C18.8746,22.8300833 19.1255583,22.8300833 19.3262458,22.7095125 L31.9929125,15.1095125 C32.2926375,14.92925 32.3895375,14.5401458 32.2093542,14.2403417 C32.0948792,14.0499458 31.8889667,13.9334125 31.6667458,13.9333333 L27.8667458,13.9333333 L27.8667458,11.4 L34.2000792,11.4 L34.2000792,26.6 L3.8,26.6 L3.8,11.4 L10.1333333,11.4 L10.1333333,13.9333333 Z M36.6567,35.4666667 C36.4356667,36.2463 35.6712333,36.7333333 33.5666667,36.7333333 L4.43333333,36.7333333 C2.32876667,36.7333333 1.56433333,36.2463 1.3433,35.4666667 L36.6567,35.4666667 Z M13.6914,34.2 L14.9580667,31.6666667 L23.0419333,31.6666667 L24.3086,34.2 L13.6914,34.2 Z M3.16666667,30.4 C2.1173125,30.4 1.26666667,29.5493542 1.26666667,28.5 L1.26666667,10.7666667 C1.26666667,9.7173125 2.1173125,8.86666667 3.16666667,8.86666667 L10.1333333,8.86666667 L10.1333333,10.1333333 L3.16666667,10.1333333 C2.81690833,10.1333333 2.53333333,10.4169083 2.53333333,10.7666667 L2.53333333,27.2333333 C2.53333333,27.5830917 2.81690833,27.8666667 3.16666667,27.8666667 L34.8333333,27.8666667 C35.1830917,27.8666667 35.4666667,27.5830917 35.4666667,27.2333333 L35.4666667,10.7666667 C35.4666667,10.4169083 35.1830917,10.1333333 34.8333333,10.1333333 L27.8666667,10.1333333 L27.8666667,8.86666667 L34.8333333,8.86666667 C35.8826875,8.86666667 36.7333333,9.7173125 36.7333333,10.7666667 L36.7333333,28.5 C36.7333333,29.5493542 35.8826875,30.4 34.8333333,30.4 L3.16666667,30.4 Z" id="Shape"></path>
                        <path d="M22.1662737,9.302 C23.1196826,8.52086364 23.7062723,7.35202273 23.7777723,6.09090909 C23.7777723,1.88327273 21.4512744,1 19.4999984,1 C17.5487224,1 15.2222246,1.88327273 15.2222246,6.09090909 C15.2931898,7.35265909 15.8798559,8.52229545 16.8337231,9.30390909 C15.2138218,9.51176136 13.9976354,10.9458068 14.0000035,12.6454545 L14,15 L15.2222246,15 L15.2222246,12.6454545 C15.2222246,11.4856818 16.1251404,10.5454545 17.2388894,10.5454545 L21.7611074,10.5454545 C22.8748564,10.5454545 23.7777723,11.4856818 23.7777723,12.6454545 L23.7777723,15 L25,15 L24.9999934,12.6454545 C25.0032781,10.9450909 23.7868625,9.50993182 22.1662737,9.302 Z M16.4762234,5.417 C16.6418344,3.28454545 17.6055557,2.27272727 19.4999984,2.27272727 C21.2343302,2.27272727 22.1888848,3.12672727 22.4620512,4.90854545 L20.4258309,3.63581818 C20.1363937,3.45501136 19.761019,3.55277273 19.5873872,3.85417045 C19.5644706,3.89394318 19.5458317,3.93610227 19.5317762,3.98009091 C19.2225542,4.94609091 17.5530002,5.31136364 16.4762234,5.417 Z M19.4999984,9.27272727 C18.1369927,9.03098864 17.0031535,8.04677273 16.52939,6.69418182 L16.52939,6.69227273 C17.5756113,6.60254545 19.4627207,6.27290909 20.3427199,5.067 L22.526829,6.43136364 C22.2817736,7.99172727 20.4380531,9.27272727 19.4999984,9.27272727 Z" id="Shape"></path>
                        <polygon id="Shape" points="31.6666667 22.3333333 31.6666667 21 30.3333333 21 30.3333333 22.3333333 29 22.3333333 29 23.6666667 30.3333333 23.6666667 30.3333333 25 31.6666667 25 31.6666667 23.6666667 33 23.6666667 33 22.3333333"></polygon>
                    </g>
                </g>
            </g>
        </g>
    </g>
</svg>