<?xml version="1.0" encoding="UTF-8"?>
<svg width="49px" height="49px" viewBox="0 0 49 49" version="1.1" xmlns="http://www.w3.org/2000/svg" xmlns:xlink="http://www.w3.org/1999/xlink">
    <!-- Generator: Sketch 50.2 (55047) - http://www.bohemiancoding.com/sketch -->
    <title>visa</title>
    <desc>Created with Sketch.</desc>
    <defs>
        <linearGradient x1="50%" y1="0%" x2="50%" y2="100%" id="linearGradient-1">
            <stop stop-color="#FAFAFA" offset="0%"></stop>
            <stop stop-color="#F3F2F2" offset="100%"></stop>
        </linearGradient>
        <linearGradient x1="0%" y1="0%" x2="100%" y2="100%" id="linearGradient-2">
            <stop stop-color="#1D3EDE" offset="0%"></stop>
            <stop stop-color="#01E4F8" offset="100%"></stop>
        </linearGradient>
    </defs>
    <g id="Design" stroke="none" stroke-width="1" fill="none" fill-rule="evenodd">
        <g id="Контакты" transform="translate(-1178.000000, -1898.000000)" fill-rule="nonzero">
            <g id="Group-23" transform="translate(-145.000000, 1165.000000)">
                <g id="visa" transform="translate(1323.000000, 733.000000)">
                    <circle id="Oval" fill="url(#linearGradient-1)" cx="24.5" cy="24.5" r="24.5"></circle>
                    <g id="Group" transform="translate(8.000000, 18.000000)" fill="#293688">
                        <polygon id="Shape" points="10.074231 10.7492589 11.9481581 0.2330625 14.9820122 0.2330625 13.1081884 10.7492589"></polygon>
                        <path d="M23.9087173,0.504919643 C23.307465,0.291794643 22.3654894,0.0635446429 21.1891307,0.0635446429 C18.1907234,0.0635446429 16.078693,1.49020536 16.0605046,3.53414286 C16.0438663,5.044875 17.5681824,5.88755357 18.7197386,6.391 C19.9006444,6.90544643 20.2977933,7.23554464 20.2920061,7.69528571 C20.2846687,8.40016964 19.3484802,8.72241071 18.4761581,8.72241071 C17.2619757,8.72201786 16.6165957,8.56291071 15.6200547,8.17044643 L15.2291064,8.00289286 L14.8030213,10.3570893 C15.5118541,10.65075 16.8226626,10.9054196 18.183386,10.9182857 C21.3723587,10.9175982 23.443465,9.50861607 23.4667173,7.3253125 C23.4782918,6.12916071 22.6697325,5.2188125 20.9191976,4.4680625 C19.8584802,3.98219643 19.2088632,3.65769643 19.2158906,3.1645625 C19.2158906,2.72760714 19.7660912,2.26020536 20.9536109,2.26020536 C21.9458116,2.24547321 22.6646687,2.44985714 23.224997,2.66298214 L23.4964802,2.78427679 L23.9087173,0.504919643 Z" id="Shape"></path>
                        <path d="M29.0813678,0.2330625 C28.3544498,0.2330625 27.8292584,0.444026786 27.5098237,1.12867857 L23.0134529,10.7496518 L26.2256778,10.7496518 L26.8501824,9.13815179 L30.6880486,9.13815179 L31.0445836,10.7496518 L33.9002736,10.7496518 L31.4019453,0.233357143 L29.0814711,0.233357143 L29.0814711,0.2330625 L29.0813678,0.2330625 Z M27.7024559,7.03391071 C27.9530638,6.42832143 28.9108511,4.09465179 28.9108511,4.09465179 C28.8934894,4.12225 29.1602188,3.48611607 29.3133739,3.09139286 L29.5187173,3.99761607 C29.5187173,3.99761607 30.0990942,6.50797321 30.2209362,7.03420536 L27.7024559,7.03420536 L27.7024559,7.03391071 Z" id="Shape"></path>
                        <path d="M4.54153191,7.44179464 L4.27428571,6.00010714 C3.72057143,4.3195625 2.00207295,2.50122321 0.0763708207,1.5901875 L2.75689362,10.7492589 L5.96984195,10.7492589 L10.7883343,0.2330625 L7.57610942,0.2330625 L4.54153191,7.44179464 Z" id="Shape"></path>
                    </g>
                    <g id="Group" transform="translate(3.000000, 18.000000)">
                        <path d="M1.12177488,0.0386722408 L1.12177488,0.21793311 C4.87540995,1.13652843 7.48139336,3.45883278 8.51308768,6.126699 L7.42840758,0.986090301 C7.24733886,0.283561873 6.69863033,0.0631404682 6.04935071,0.0387759197 L1.12177488,0.0386722408 Z" id="Shape" fill="#F7981D"></path>
                        <path d="M21.5352556,30.9956455 C30.8719784,30.9956455 38.9676023,25.7204665 43,18 L0.0709194313,18 C4.1036234,25.7204665 12.198941,30.9956455 21.5352556,30.9956455 Z" id="Shape" fill="url(#linearGradient-2)"></path>
                    </g>
                    <path d="M24.4995874,0 C15.2142117,0 7.13814653,5.25685922 3,13 L46,13 C41.8613377,5.25727823 33.7849631,0 24.4995874,0 Z" id="Shape" fill="url(#linearGradient-2)"></path>
                </g>
            </g>
        </g>
    </g>
</svg>